<svg version="1.1" xmlns="http://www.w3.org/2000/svg" xmlns:xlink="http://www.w3.org/1999/xlink" width="1524" height="946"><defs><clipPath id="kkScbFJJPHVc"><path fill="none" stroke="none" d=" M 0 0 L 1524 0 L 1524 946 L 0 946 L 0 0 Z"/></clipPath></defs><g transform="scale(1,1)" clip-path="url(#kkScbFJJPHVc)"><g><rect fill="rgb(255,255,255)" stroke="none" x="0" y="0" width="1524" height="946" fill-opacity="1"/><path fill="none" stroke="rgb(28,28,31)" paint-order="fill stroke markers" d=" M 689.5 2.5 L 689.5 946.5" stroke-opacity="1" stroke-miterlimit="10"/><path fill="none" stroke="rgb(28,28,31)" paint-order="fill stroke markers" d=" M 689.5 1.5 L 685.5 5.5" stroke-opacity="1" stroke-miterlimit="10"/><path fill="none" stroke="rgb(28,28,31)" paint-order="fill stroke markers" d=" M 689.5 1.5 L 693.5 5.5" stroke-opacity="1" stroke-miterlimit="10"/><path fill="none" stroke="rgb(28,28,31)" paint-order="fill stroke markers" d=" M 0.5 655.5 L 1522.5 655.5" stroke-opacity="1" stroke-miterlimit="10"/><path fill="none" stroke="rgb(28,28,31)" paint-order="fill stroke markers" d=" M 1523.5 655.5 L 1519.5 651.5" stroke-opacity="1" stroke-miterlimit="10"/><path fill="none" stroke="rgb(28,28,31)" paint-order="fill stroke markers" d=" M 1523.5 655.5 L 1519.5 659.5" stroke-opacity="1" stroke-miterlimit="10"/><path fill="none" stroke="rgb(28,28,31)" paint-order="fill stroke markers" d=" M 60.5 655.5 L 60.5 658.5" stroke-opacity="1" stroke-miterlimit="10"/><path fill="none" stroke="rgb(28,28,31)" paint-order="fill stroke markers" d=" M 139.5 655.5 L 139.5 658.5" stroke-opacity="1" stroke-miterlimit="10"/><path fill="none" stroke="rgb(28,28,31)" paint-order="fill stroke markers" d=" M 217.5 655.5 L 217.5 658.5" stroke-opacity="1" stroke-miterlimit="10"/><path fill="none" stroke="rgb(28,28,31)" paint-order="fill stroke markers" d=" M 296.5 655.5 L 296.5 658.5" stroke-opacity="1" stroke-miterlimit="10"/><path fill="none" stroke="rgb(28,28,31)" paint-order="fill stroke markers" d=" M 374.5 655.5 L 374.5 658.5" stroke-opacity="1" stroke-miterlimit="10"/><path fill="none" stroke="rgb(28,28,31)" paint-order="fill stroke markers" d=" M 453.5 655.5 L 453.5 658.5" stroke-opacity="1" stroke-miterlimit="10"/><path fill="none" stroke="rgb(28,28,31)" paint-order="fill stroke markers" d=" M 532.5 655.5 L 532.5 658.5" stroke-opacity="1" stroke-miterlimit="10"/><path fill="none" stroke="rgb(28,28,31)" paint-order="fill stroke markers" d=" M 610.5 655.5 L 610.5 658.5" stroke-opacity="1" stroke-miterlimit="10"/><path fill="none" stroke="rgb(28,28,31)" paint-order="fill stroke markers" d=" M 689.5 655.5 L 689.5 658.5" stroke-opacity="1" stroke-miterlimit="10"/><path fill="none" stroke="rgb(28,28,31)" paint-order="fill stroke markers" d=" M 767.5 655.5 L 767.5 658.5" stroke-opacity="1" stroke-miterlimit="10"/><path fill="none" stroke="rgb(28,28,31)" paint-order="fill stroke markers" d=" M 846.5 655.5 L 846.5 658.5" stroke-opacity="1" stroke-miterlimit="10"/><path fill="none" stroke="rgb(28,28,31)" paint-order="fill stroke markers" d=" M 924.5 655.5 L 924.5 658.5" stroke-opacity="1" stroke-miterlimit="10"/><path fill="none" stroke="rgb(28,28,31)" paint-order="fill stroke markers" d=" M 1003.5 655.5 L 1003.5 658.5" stroke-opacity="1" stroke-miterlimit="10"/><path fill="none" stroke="rgb(28,28,31)" paint-order="fill stroke markers" d=" M 1081.5 655.5 L 1081.5 658.5" stroke-opacity="1" stroke-miterlimit="10"/><path fill="none" stroke="rgb(28,28,31)" paint-order="fill stroke markers" d=" M 1160.5 655.5 L 1160.5 658.5" stroke-opacity="1" stroke-miterlimit="10"/><path fill="none" stroke="rgb(28,28,31)" paint-order="fill stroke markers" d=" M 1238.5 655.5 L 1238.5 658.5" stroke-opacity="1" stroke-miterlimit="10"/><path fill="none" stroke="rgb(28,28,31)" paint-order="fill stroke markers" d=" M 1317.5 655.5 L 1317.5 658.5" stroke-opacity="1" stroke-miterlimit="10"/><path fill="none" stroke="rgb(28,28,31)" paint-order="fill stroke markers" d=" M 1396.5 655.5 L 1396.5 658.5" stroke-opacity="1" stroke-miterlimit="10"/><path fill="none" stroke="rgb(28,28,31)" paint-order="fill stroke markers" d=" M 1474.5 655.5 L 1474.5 658.5" stroke-opacity="1" stroke-miterlimit="10"/><path fill="none" stroke="rgb(28,28,31)" paint-order="fill stroke markers" d=" M 686.5 890.5 L 689.5 890.5" stroke-opacity="1" stroke-miterlimit="10"/><path fill="none" stroke="rgb(28,28,31)" paint-order="fill stroke markers" d=" M 686.5 812.5 L 689.5 812.5" stroke-opacity="1" stroke-miterlimit="10"/><path fill="none" stroke="rgb(28,28,31)" paint-order="fill stroke markers" d=" M 686.5 733.5 L 689.5 733.5" stroke-opacity="1" stroke-miterlimit="10"/><path fill="none" stroke="rgb(28,28,31)" paint-order="fill stroke markers" d=" M 686.5 576.5 L 689.5 576.5" stroke-opacity="1" stroke-miterlimit="10"/><path fill="none" stroke="rgb(28,28,31)" paint-order="fill stroke markers" d=" M 686.5 498.5 L 689.5 498.5" stroke-opacity="1" stroke-miterlimit="10"/><path fill="none" stroke="rgb(28,28,31)" paint-order="fill stroke markers" d=" M 686.5 419.5 L 689.5 419.5" stroke-opacity="1" stroke-miterlimit="10"/><path fill="none" stroke="rgb(28,28,31)" paint-order="fill stroke markers" d=" M 686.5 341.5 L 689.5 341.5" stroke-opacity="1" stroke-miterlimit="10"/><path fill="none" stroke="rgb(28,28,31)" paint-order="fill stroke markers" d=" M 686.5 262.5 L 689.5 262.5" stroke-opacity="1" stroke-miterlimit="10"/><path fill="none" stroke="rgb(28,28,31)" paint-order="fill stroke markers" d=" M 686.5 183.5 L 689.5 183.5" stroke-opacity="1" stroke-miterlimit="10"/><path fill="none" stroke="rgb(28,28,31)" paint-order="fill stroke markers" d=" M 686.5 105.5 L 689.5 105.5" stroke-opacity="1" stroke-miterlimit="10"/><path fill="none" stroke="rgb(28,28,31)" paint-order="fill stroke markers" d=" M 686.5 26.5 L 689.5 26.5" stroke-opacity="1" stroke-miterlimit="10"/><path fill="none" stroke="rgb(0,103,88)" paint-order="fill stroke markers" d=" M 0.9999999999998863 585.1546082797571 L 0.9999999999998863 585.166216649797 L 0.9999999999998863 585.1662166497969 L 1.9999999999998863 585.1778568781052 L 1.9999999999998863 585.1778568781051 L 3 585.1895290958496 L 3 585.1895290958496 L 4 585.2012334349181 L 4 585.201233434918 L 5 585.2129700279233 L 5 585.2129700279233 L 6 585.2247390082085 L 6 585.2247390082085 L 6.999999999999886 585.2365405098515 L 6.999999999999886 585.2365405098515 L 7.999999999999886 585.2483746676702 L 7.999999999999886 585.2483746676702 L 9 585.2602416172282 L 9 585.2602416172281 L 10 585.2721414948389 L 10 585.2721414948389 L 11 585.2840744375719 L 11 585.2840744375719 L 12 585.296040583257 L 12 585.296040583257 L 12.999999999999886 585.3080400704903 L 12.999999999999886 585.3080400704903 L 13.999999999999886 585.3200730386395 L 13.999999999999886 585.3200730386395 L 15 585.3321396278488 L 15 585.3321396278488 L 16 585.3442399790448 L 16 585.3442399790448 L 17 585.3563742339416 L 17 585.3563742339416 L 18 585.3685425350462 L 18 585.3685425350461 L 18.999999999999886 585.3807450256649 L 18.999999999999886 585.3807450256647 L 19.999999999999886 585.3929818499076 L 19.999999999999886 585.3929818499075 L 21 585.4052531526947 L 21 585.4052531526946 L 22 585.4175590797619 L 22 585.4175590797619 L 23 585.4298997776662 L 23 585.4298997776662 L 24 585.442275393792 L 24 585.442275393792 L 24.999999999999886 585.4546860763563 L 24.999999999999886 585.4546860763563 L 25.999999999999886 585.4671319744155 L 25.999999999999886 585.4671319744155 L 27 585.4796132378702 L 27 585.4796132378702 L 28 585.4921300174722 L 28 585.4921300174722 L 29 585.5046824648297 L 29 585.5046824648297 L 30 585.5172707324143 L 30 585.5172707324143 L 30.999999999999886 585.5298949735662 L 30.999999999999886 585.5298949735662 L 31.999999999999886 585.5425553425011 L 31.999999999999886 585.542555342501 L 33 585.555251994316 L 33 585.555251994316 L 34 585.5679850849958 L 34 585.5679850849957 L 35 585.5807547714193 L 35 585.5807547714193 L 36 585.5935612113661 L 36 585.593561211366 L 36.999999999999886 585.6064045635226 L 36.999999999999886 585.6064045635226 L 37.999999999999886 585.6192849874888 L 37.999999999999886 585.6192849874886 L 39 585.6322026437845 L 39 585.6322026437845 L 40 585.6451576938566 L 40 585.6451576938566 L 41 585.6581503000853 L 41 585.6581503000853 L 42 585.6711806257906 L 42 585.6711806257906 L 42.999999999999886 585.6842488352397 L 42.999999999999886 585.6842488352397 L 43.999999999999886 585.6973550936538 L 43.999999999999886 585.6973550936538 L 45 585.7104995672142 L 45 585.7104995672142 L 46 585.7236824230707 L 46 585.7236824230706 L 47 585.736903829347 L 47 585.736903829347 L 48 585.7501639551494 L 48 585.7501639551494 L 48.999999999999886 585.7634629705727 L 48.999999999999886 585.7634629705727 L 49.999999999999886 585.7768010467081 L 49.999999999999886 585.7768010467081 L 51 585.7901783556505 L 51 585.7901783556505 L 52 585.8035950705054 L 52 585.8035950705054 L 53 585.8170513653968 L 53 585.8170513653968 L 54 585.8305474154743 L 54 585.8305474154743 L 54.999999999999886 585.8440833969212 L 54.999999999999886 585.8440833969212 L 55.999999999999886 585.8576594869616 L 55.999999999999886 585.8576594869616 L 57 585.8712758638679 L 57 585.8712758638679 L 58 585.8849327069696 L 58 585.8849327069696 L 59 585.8986301966598 L 59 585.8986301966598 L 60 585.9123685144042 L 60 585.9123685144042 L 60.999999999999886 585.9261478427483 L 60.999999999999886 585.9261478427483 L 61.999999999999886 585.9399683653256 L 61.999999999999886 585.9399683653256 L 63 585.9538302668664 L 63 585.9538302668664 L 64 585.9677337332047 L 64 585.9677337332047 L 65 585.9816789512877 L 65 585.9816789512877 L 66 585.9956661091833 L 66 585.9956661091833 L 66.99999999999989 586.0096953960888 L 66.99999999999989 586.0096953960888 L 67.99999999999989 586.0237670023396 L 67.99999999999989 586.0237670023396 L 69 586.0378811194173 L 69 586.0378811194173 L 70 586.0520379399585 L 70 586.0520379399585 L 71 586.0662376577637 L 71 586.0662376577637 L 72 586.0804804678058 L 72 586.0804804678058 L 72.99999999999989 586.0947665662393 L 72.99999999999989 586.0947665662393 L 73.99999999999989 586.1090961504087 L 73.99999999999989 586.1090961504087 L 75 586.1234694188582 L 75 586.1234694188582 L 76 586.1378865713405 L 76 586.1378865713403 L 77 586.1523478088254 L 77 586.1523478088254 L 78 586.1668533335105 L 78 586.1668533335105 L 78.99999999999989 586.1814033488292 L 78.99999999999989 586.1814033488292 L 79.99999999999989 586.1959980594606 L 79.99999999999989 586.1959980594606 L 81 586.2106376713394 L 81 586.2106376713394 L 82 586.2253223916649 L 82 586.2253223916649 L 83 586.2400524289113 L 83 586.2400524289112 L 84 586.2548279928369 L 84 586.2548279928369 L 84.99999999999989 586.2696492944947 L 84.99999999999989 586.2696492944947 L 85.99999999999989 586.2845165462414 L 85.99999999999989 586.2845165462414 L 87 586.2994299617488 L 87 586.2994299617488 L 88 586.3143897560127 L 88 586.3143897560127 L 89 586.3293961453637 L 89 586.3293961453637 L 90 586.3444493474778 L 90 586.3444493474778 L 90.99999999999989 586.3595495813864 L 90.99999999999989 586.3595495813863 L 91.99999999999989 586.374697067487 L 91.99999999999989 586.374697067487 L 93 586.389892027554 L 93 586.389892027554 L 94 586.4051346847493 L 94 586.4051346847493 L 95 586.4204252636331 L 95 586.4204252636331 L 96 586.4357639901751 L 96 586.4357639901751 L 96.99999999999989 586.4511510917652 L 96.99999999999989 586.4511510917652 L 97.99999999999989 586.4665867972249 L 97.99999999999989 586.4665867972247 L 99 586.4820713368183 L 99 586.4820713368183 L 100 586.4976049422642 L 100 586.4976049422642 L 101 586.5131878467464 L 101 586.5131878467464 L 101.99999999999989 586.5288202849264 L 101.99999999999989 586.5288202849263 L 102.99999999999989 586.5445024929543 L 102.99999999999989 586.5445024929542 L 103.99999999999989 586.560234708481 L 103.99999999999989 586.560234708481 L 105 586.5760171706701 L 105 586.5760171706701 L 106 586.5918501202099 L 106 586.5918501202098 L 107 586.6077337993253 L 107 586.6077337993252 L 107.99999999999989 586.6236684517904 L 107.99999999999989 586.6236684517903 L 108.99999999999989 586.6396543229408 L 108.99999999999989 586.6396543229408 L 109.99999999999989 586.655691659686 L 109.99999999999989 586.655691659686 L 111 586.671780710522 L 111 586.671780710522 L 112 586.687921725544 L 112 586.6879217255439 L 113 586.7041149564595 L 113 586.7041149564595 L 113.99999999999989 586.7203606566013 L 113.99999999999989 586.7203606566013 L 114.99999999999989 586.7366590809402 L 114.99999999999989 586.7366590809402 L 115.99999999999989 586.7530104860982 L 115.99999999999989 586.7530104860982 L 117 586.769415130363 L 117 586.769415130363 L 118 586.7858732736997 L 118 586.7858732736997 L 119 586.802385177766 L 119 586.8023851777659 L 119.99999999999989 586.8189511059251 L 119.99999999999989 586.8189511059251 L 120.99999999999989 586.8355713232597 L 120.99999999999989 586.8355713232597 L 121.99999999999989 586.8522460965864 L 121.99999999999989 586.8522460965864 L 123 586.8689756944696 L 123 586.8689756944694 L 124 586.8857603872353 L 124 586.8857603872353 L 125 586.9026004469869 L 125 586.9026004469868 L 125.99999999999989 586.9194961476181 L 125.99999999999989 586.919496147618 L 126.99999999999989 586.9364477648292 L 126.99999999999989 586.9364477648292 L 128 586.9534555761406 L 128 586.9534555761406 L 129 586.9705198609091 L 129 586.9705198609091 L 130 586.987640900342 L 130 586.987640900342 L 131 587.004818977513 L 131 587.0048189775129 L 131.9999999999999 587.0220543773773 L 131.9999999999999 587.0220543773773 L 132.9999999999999 587.039347386788 L 132.9999999999999 587.039347386788 L 134 587.0566982945109 L 134 587.0566982945109 L 134.9999999999999 587.074107391241 L 134.9999999999999 587.074107391241 L 136 587.0915749696185 L 136 587.0915749696185 L 137 587.109101324245 L 137 587.109101324245 L 137.9999999999999 587.1266867517 L 137.9999999999999 587.1266867517 L 139 587.1443315505576 L 139 587.1443315505576 L 140 587.1620360214027 L 140 587.1620360214027 L 140.9999999999999 587.1798004668489 L 140.9999999999999 587.1798004668489 L 142 587.1976251915544 L 142 587.1976251915544 L 143 587.2155105022402 L 143 587.2155105022402 L 143.9999999999999 587.2334567077077 L 143.9999999999999 587.2334567077075 L 145 587.2514641188549 L 145 587.2514641188548 L 146 587.2695330486957 L 146 587.2695330486957 L 146.9999999999999 587.2876638123776 L 146.9999999999999 587.2876638123776 L 148 587.3058567271988 L 148 587.3058567271988 L 149 587.3241121126282 L 149 587.3241121126282 L 149.9999999999999 587.3424302903225 L 149.9999999999999 587.3424302903225 L 151 587.3608115841456 L 151 587.3608115841455 L 152 587.3792563201876 L 152 587.3792563201876 L 152.9999999999999 587.3977648267834 L 152.9999999999999 587.3977648267834 L 154 587.4163374345328 L 154 587.4163374345327 L 155 587.434974476319 L 155 587.434974476319 L 155.9999999999999 587.4536762873294 L 155.9999999999999 587.4536762873294 L 157 587.4724432050745 L 157 587.4724432050743 L 158 587.4912755694086 L 158 587.4912755694085 L 158.9999999999999 587.51017372255 L 158.9999999999999 587.51017372255 L 160 587.5291380091019 L 160 587.5291380091019 L 161 587.5481687760721 L 161 587.5481687760721 L 161.9999999999999 587.5672663728953 L 161.9999999999999 587.5672663728953 L 163 587.5864311514533 L 163 587.5864311514533 L 164 587.6056634660969 L 164 587.6056634660969 L 164.9999999999999 587.6249636736673 L 164.9999999999999 587.6249636736673 L 166 587.6443321335181 L 166 587.6443321335181 L 167 587.6637692075374 L 167 587.6637692075374 L 167.9999999999999 587.6832752601699 L 167.9999999999999 587.6832752601699 L 169 587.70285065844 L 169 587.70285065844 L 170 587.7224957719736 L 170 587.7224957719736 L 170.9999999999999 587.7422109730225 L 170.9999999999999 587.7422109730225 L 172 587.7619966364864 L 172 587.7619966364864 L 173 587.7818531399373 L 173 587.7818531399373 L 173.9999999999999 587.8017808636428 L 173.9999999999999 587.8017808636428 L 175 587.8217801905904 L 175 587.8217801905904 L 176 587.8418515065116 L 176 587.8418515065116 L 176.9999999999999 587.8619951999067 L 176.9999999999999 587.8619951999067 L 178 587.8822116620694 L 178 587.8822116620693 L 178.99999999999994 587.9025012871117 L 178.99999999999994 587.9025012871117 L 179.99999999999994 587.9228644719901 L 179.99999999999994 587.92286447199 L 181 587.94330161653 L 181 587.94330161653 L 181.99999999999994 587.9638131234526 L 181.99999999999994 587.9638131234526 L 182.99999999999994 587.9843993984007 L 182.99999999999994 587.9843993984007 L 184 588.005060849965 L 184 588.005060849965 L 184.99999999999994 588.0257978897114 L 184.99999999999994 588.0257978897113 L 185.99999999999994 588.046610932207 L 185.99999999999994 588.046610932207 L 187 588.067500395049 L 187 588.067500395049 L 187.99999999999994 588.0884666988908 L 187.99999999999994 588.0884666988908 L 189 588.109510267471 L 189 588.1095102674709 L 190 588.130631527641 L 190 588.130631527641 L 190.99999999999994 588.1518309093938 L 190.99999999999994 588.1518309093938 L 192 588.1731088458932 L 192 588.1731088458932 L 193 588.1944657735024 L 193 588.1944657735024 L 193.99999999999994 588.2159021318139 L 193.99999999999994 588.2159021318139 L 195 588.237418363679 L 195 588.2374183636789 L 196 588.2590149152384 L 196 588.2590149152384 L 196.99999999999994 588.2806922359525 L 196.99999999999994 588.2806922359525 L 198 588.3024507786322 L 198 588.3024507786322 L 199 588.3242909994699 L 199 588.3242909994699 L 199.99999999999994 588.3462133580716 L 199.99999999999994 588.3462133580716 L 201 588.3682183174882 L 201 588.3682183174881 L 202 588.3903063442478 L 202 588.3903063442478 L 202.99999999999994 588.4124779083891 L 202.99999999999994 588.4124779083891 L 204 588.4347334834929 L 204 588.4347334834929 L 205 588.4570735467171 L 205 588.457073546717 L 205.99999999999994 588.4794985788288 L 205.99999999999994 588.4794985788287 L 207 588.5020090642399 L 207 588.5020090642398 L 208 588.5246054910403 L 208 588.5246054910403 L 208.99999999999994 588.547288351034 L 208.99999999999994 588.547288351034 L 210 588.570058139773 L 210 588.570058139773 L 211 588.5929153565941 L 211 588.5929153565941 L 211.99999999999994 588.6158605046544 L 211.99999999999994 588.6158605046544 L 213 588.6388940909683 L 213 588.6388940909683 L 214 588.6620166264435 L 214 588.6620166264433 L 214.99999999999994 588.6852286259192 L 214.99999999999994 588.6852286259192 L 216 588.7085306082037 L 216 588.7085306082037 L 217 588.7319230961122 L 217 588.731923096112 L 217.99999999999994 588.7554066165055 L 217.99999999999994 588.7554066165055 L 219 588.7789817003298 L 219 588.7789817003298 L 220 588.8026488826554 L 220 588.8026488826553 L 220.99999999999994 588.8264087027165 L 220.99999999999994 588.8264087027165 L 222 588.8502617039532 L 222 588.850261703953 L 222.99999999999994 588.87420843405 L 222.99999999999994 588.87420843405 L 223.99999999999994 588.8982494449799 L 223.99999999999994 588.8982494449799 L 225 588.922385293044 L 225 588.922385293044 L 225.99999999999994 588.9466165389151 L 225.99999999999994 588.9466165389151 L 226.99999999999994 588.9709437476804 L 226.99999999999994 588.9709437476804 L 228 588.9953674888847 L 228 588.9953674888847 L 228.99999999999994 589.0198883365741 L 228.99999999999994 589.019888336574 L 229.99999999999994 589.044506869341 L 229.99999999999994 589.0445068693409 L 231 589.0692236703685 L 231 589.0692236703685 L 231.99999999999994 589.0940393274761 L 231.99999999999994 589.0940393274761 L 232.99999999999994 589.1189544331656 L 232.99999999999994 589.1189544331656 L 234 589.1439695846677 L 234 589.1439695846677 L 234.99999999999994 589.169085383989 L 234.99999999999994 589.169085383989 L 235.99999999999994 589.1943024379599 L 235.99999999999994 589.1943024379599 L 237 589.2196213582824 L 237 589.2196213582824 L 237.99999999999994 589.2450427615796 L 237.99999999999994 589.2450427615796 L 238.99999999999994 589.2705672694443 L 238.99999999999994 589.2705672694443 L 240 589.2961955084895 L 240 589.2961955084895 L 240.99999999999994 589.3219281103989 L 240.99999999999994 589.3219281103989 L 241.99999999999994 589.3477657119779 L 241.99999999999994 589.3477657119779 L 243 589.3737089552058 L 243 589.3737089552056 L 243.99999999999994 589.3997584872876 L 243.99999999999994 589.3997584872876 L 244.99999999999994 589.425914960708 L 244.99999999999994 589.425914960708 L 246 589.4521790332846 L 246 589.4521790332846 L 246.99999999999994 589.4785513682217 L 246.99999999999994 589.4785513682216 L 247.99999999999994 589.5050326341666 L 247.99999999999994 589.5050326341666 L 249 589.5316235052643 L 249 589.5316235052643 L 249.99999999999994 589.5583246612146 L 249.99999999999994 589.5583246612146 L 250.99999999999994 589.5851367873286 L 250.99999999999994 589.5851367873286 L 252 589.6120605745868 L 252 589.6120605745868 L 252.99999999999994 589.6390967196978 L 252.99999999999994 589.6390967196978 L 253.99999999999994 589.6662459251571 L 253.99999999999994 589.6662459251571 L 255 589.6935088993074 L 255 589.6935088993074 L 255.99999999999994 589.7208863563991 L 255.99999999999994 589.720886356399 L 256.99999999999994 589.7483790166518 L 256.99999999999994 589.7483790166518 L 258 589.775987606317 L 258 589.775987606317 L 258.99999999999994 589.8037128577402 L 258.99999999999994 589.8037128577402 L 259.99999999999994 589.8315555094254 L 259.99999999999994 589.8315555094254 L 261 589.8595163060995 L 261 589.8595163060995 L 261.99999999999994 589.8875959987778 L 261.99999999999994 589.8875959987778 L 262.99999999999994 589.9157953448298 L 262.99999999999994 589.9157953448298 L 264 589.9441151080471 L 264 589.944115108047 L 264.99999999999994 589.9725560587101 L 264.99999999999994 589.97255605871 L 265.99999999999994 590.001118973658 L 265.99999999999994 590.001118973658 L 267 590.0298046363578 L 267 590.0298046363578 L 267.99999999999994 590.0586138369747 L 267.99999999999994 590.0586138369747 L 268.99999999999994 590.0875473724442 L 268.99999999999994 590.0875473724442 L 270 590.1166060465434 L 270 590.1166060465434 L 270.99999999999994 590.1457906699654 L 270.99999999999994 590.1457906699653 L 271.99999999999994 590.1751020603925 L 271.99999999999994 590.1751020603924 L 273 590.204541042572 L 273 590.204541042572 L 273.99999999999994 590.2341084483922 L 273.99999999999994 590.2341084483922 L 274.99999999999994 590.2638051169594 L 274.99999999999994 590.2638051169594 L 276 590.2936318946756 L 276 590.2936318946756 L 276.99999999999994 590.3235896353185 L 276.99999999999994 590.3235896353185 L 277.99999999999994 590.353679200121 L 277.99999999999994 590.353679200121 L 279 590.3839014578523 L 279 590.3839014578523 L 279.99999999999994 590.4142572849007 L 279.99999999999994 590.4142572849006 L 280.99999999999994 590.4447475653561 L 280.99999999999994 590.4447475653561 L 282 590.4753731910954 L 282 590.4753731910953 L 282.99999999999994 590.5061350618669 L 282.99999999999994 590.5061350618669 L 283.99999999999994 590.5370340853776 L 283.99999999999994 590.5370340853776 L 285 590.5680711773812 L 285 590.5680711773811 L 285.99999999999994 590.599247261766 L 285.99999999999994 590.5992472617659 L 286.99999999999994 590.630563270646 L 286.99999999999994 590.630563270646 L 288 590.662020144452 L 288 590.662020144452 L 288.99999999999994 590.6936188320234 L 288.99999999999994 590.6936188320234 L 289.99999999999994 590.7253602907028 L 289.99999999999994 590.7253602907027 L 291 590.7572454864305 L 291 590.7572454864305 L 291.99999999999994 590.7892753938411 L 291.99999999999994 590.789275393841 L 292.99999999999994 590.8214509963602 L 292.99999999999994 590.8214509963602 L 294 590.8537732863045 L 294 590.8537732863045 L 294.99999999999994 590.8862432649811 L 294.99999999999994 590.8862432649811 L 295.99999999999994 590.9188619427889 L 295.99999999999994 590.9188619427889 L 297 590.9516303393224 L 297 590.9516303393224 L 297.99999999999994 590.9845494834748 L 297.99999999999994 590.9845494834748 L 298.99999999999994 591.0176204135448 L 298.99999999999994 591.0176204135448 L 300 591.0508441773429 L 300 591.0508441773429 L 300.99999999999994 591.0842218323007 L 300.99999999999994 591.0842218323007 L 301.99999999999994 591.1177544455801 L 301.99999999999994 591.1177544455801 L 303 591.1514430941858 L 303 591.1514430941858 L 303.99999999999994 591.1852888650778 L 303.99999999999994 591.1852888650777 L 304.99999999999994 591.2192928552862 L 304.99999999999994 591.2192928552862 L 306 591.2534561720277 L 306 591.2534561720277 L 306.99999999999994 591.2877799328229 L 306.99999999999994 591.2877799328229 L 307.99999999999994 591.3222652656165 L 307.99999999999994 591.3222652656165 L 309 591.3569133088977 L 309 591.3569133088977 L 309.99999999999994 591.3917252118235 L 309.99999999999994 591.3917252118235 L 310.99999999999994 591.426702134343 L 310.99999999999994 591.426702134343 L 312 591.4618452473238 L 312 591.4618452473238 L 312.99999999999994 591.4971557326799 L 312.99999999999994 591.4971557326799 L 314 591.5326347835013 L 314 591.5326347835013 L 315 591.5682836041863 L 315 591.5682836041863 L 315.99999999999994 591.6041034105742 L 315.99999999999994 591.6041034105741 L 317 591.6400954300813 L 317 591.6400954300813 L 318 591.6762609018376 L 318 591.6762609018376 L 318.99999999999994 591.7126010768269 L 318.99999999999994 591.7126010768269 L 320 591.7491172180269 L 320 591.7491172180269 L 321 591.7858106005531 L 321 591.785810600553 L 321.99999999999994 591.8226825118039 L 321.99999999999994 591.8226825118039 L 323 591.8597342516083 L 323 591.8597342516083 L 324 591.8969671323746 L 324 591.8969671323746 L 324.99999999999994 591.9343824792423 L 324.99999999999994 591.9343824792423 L 326 591.9719816302363 L 326 591.9719816302363 L 327 592.0097659364224 L 327 592.0097659364222 L 327.99999999999994 592.0477367620653 L 327.99999999999994 592.0477367620653 L 329 592.0858954847901 L 329 592.08589548479 L 330 592.1242434957439 L 330 592.1242434957439 L 330.99999999999994 592.1627821997625 L 330.99999999999994 592.1627821997625 L 332 592.2015130155365 L 332 592.2015130155364 L 333 592.2404373757823 L 333 592.2404373757823 L 333.99999999999994 592.2795567274147 L 333.99999999999994 592.2795567274147 L 335 592.3188725317218 L 335 592.3188725317218 L 336 592.3583862645424 L 336 592.3583862645424 L 336.99999999999994 592.398099416447 L 336.99999999999994 592.398099416447 L 338 592.4380134929204 L 338 592.4380134929204 L 339 592.478130014547 L 339 592.478130014547 L 339.99999999999994 592.5184505172001 L 339.99999999999994 592.5184505172001 L 341 592.5589765522326 L 341 592.5589765522326 L 342 592.5997096866713 L 342 592.5997096866713 L 342.99999999999994 592.6406515034137 L 342.99999999999994 592.6406515034137 L 344 592.6818036014282 L 344 592.6818036014282 L 345 592.7231675959572 L 345 592.7231675959572 L 345.99999999999994 592.7647451187225 L 345.99999999999994 592.7647451187225 L 347 592.8065378181356 L 347 592.8065378181356 L 348 592.8485473595084 L 348 592.8485473595084 L 348.99999999999994 592.8907754252705 L 348.99999999999994 592.8907754252705 L 350 592.9332237151865 L 350 592.9332237151865 L 351 592.9758939465792 L 351 592.9758939465792 L 351.99999999999994 593.0187878545544 L 351.99999999999994 593.0187878545543 L 353 593.0619071922303 L 353 593.0619071922303 L 354 593.1052537309702 L 354 593.1052537309702 L 354.99999999999994 593.1488292606177 L 354.99999999999994 593.1488292606177 L 356 593.1926355897378 L 356 593.1926355897378 L 357 593.2366745458589 L 357 593.2366745458588 L 357.99999999999994 593.2809479757208 L 357.99999999999994 593.2809479757208 L 359 593.3254577455257 L 359 593.3254577455257 L 360 593.370205741193 L 360 593.3702057411929 L 360.99999999999994 593.4151938686181 L 360.99999999999994 593.4151938686181 L 362 593.4604240539358 L 362 593.4604240539356 L 363 593.5058982437868 L 363 593.5058982437868 L 363.99999999999994 593.5516184055896 L 363.99999999999994 593.5516184055896 L 365 593.5975865278157 L 365 593.5975865278157 L 366 593.6438046202696 L 366 593.6438046202696 L 366.99999999999994 593.6902747143732 L 366.99999999999994 593.6902747143732 L 368 593.7369988634548 L 368 593.7369988634548 L 369 593.783979143042 L 369 593.783979143042 L 369.99999999999994 593.8312176511607 L 369.99999999999994 593.8312176511607 L 371 593.8787165086374 L 371 593.8787165086374 L 372 593.9264778594071 L 372 593.9264778594071 L 372.99999999999994 593.9745038708261 L 372.99999999999994 593.9745038708261 L 374 594.0227967339896 L 374 594.0227967339895 L 375 594.0713586640547 L 375 594.0713586640546 L 375.99999999999994 594.1201919005686 L 375.99999999999994 594.1201919005686 L 377 594.1692987078017 L 377 594.1692987078017 L 378 594.2186813750867 L 378 594.2186813750867 L 378.99999999999994 594.2683422171629 L 378.99999999999994 594.2683422171627 L 380 594.3182835745259 L 380 594.3182835745258 L 381 594.368507813784 L 381 594.368507813784 L 381.99999999999994 594.4190173280193 L 381.99999999999994 594.4190173280193 L 383 594.469814537155 L 383 594.469814537155 L 383.99999999999994 594.5209018883294 L 383.99999999999994 594.5209018883294 L 384.99999999999994 594.5722818562757 L 384.99999999999994 594.5722818562756 L 386 594.6239569437075 L 386 594.6239569437075 L 386.99999999999994 594.6759296817122 L 386.99999999999994 594.6759296817122 L 387.99999999999994 594.7282026301489 L 387.99999999999994 594.7282026301489 L 389 594.7807783780551 L 389 594.7807783780551 L 389.99999999999994 594.8336595440584 L 389.99999999999994 594.8336595440584 L 390.99999999999994 594.8868487767965 L 390.99999999999994 594.8868487767965 L 392 594.9403487553433 L 392 594.9403487553433 L 392.99999999999994 594.9941621896427 L 392.99999999999994 594.9941621896427 L 393.99999999999994 595.0482918209497 L 393.99999999999994 595.0482918209497 L 395 595.1027404222783 L 395 595.1027404222783 L 395.99999999999994 595.1575107988585 L 395.99999999999994 595.1575107988585 L 396.99999999999994 595.2126057885997 L 396.99999999999994 595.2126057885997 L 398 595.2680282625622 L 398 595.2680282625622 L 398.99999999999994 595.3237811254376 L 398.99999999999994 595.3237811254376 L 399.99999999999994 595.3798673160364 L 399.99999999999994 595.3798673160364 L 401 595.4362898077856 L 401 595.4362898077854 L 401.99999999999994 595.493051609232 L 401.99999999999994 595.4930516092319 L 402.99999999999994 595.5501557645578 L 402.99999999999994 595.5501557645578 L 404 595.6076053541022 L 404 595.6076053541022 L 404.99999999999994 595.665403494894 L 404.99999999999994 595.6654034948939 L 405.99999999999994 595.7235533411919 L 405.99999999999994 595.7235533411917 L 407 595.7820580850356 L 407 595.7820580850356 L 407.99999999999994 595.840920956806 L 407.99999999999994 595.840920956806 L 408.99999999999994 595.9001452257953 L 408.99999999999994 595.9001452257952 L 410 595.9597342007863 L 410 595.9597342007863 L 410.99999999999994 596.0196912306441 L 410.99999999999994 596.0196912306441 L 411.99999999999994 596.0800197049153 L 411.99999999999994 596.0800197049153 L 413 596.140723054441 L 413 596.140723054441 L 413.99999999999994 596.2018047519776 L 413.99999999999994 596.2018047519776 L 414.99999999999994 596.2632683128317 L 414.99999999999994 596.2632683128315 L 416 596.3251172955032 L 416 596.3251172955032 L 416.99999999999994 596.3873553023432 L 416.99999999999994 596.3873553023432 L 417.99999999999994 596.4499859802207 L 417.99999999999994 596.4499859802207 L 419 596.5130130212038 L 419 596.5130130212038 L 419.99999999999994 596.5764401632513 L 419.99999999999994 596.5764401632513 L 420.99999999999994 596.6402711909178 L 420.99999999999994 596.6402711909178 L 422 596.7045099360719 L 422 596.7045099360718 L 422.99999999999994 596.7691602786261 L 422.99999999999994 596.7691602786261 L 423.99999999999994 596.834226147282 L 423.99999999999994 596.834226147282 L 425 596.8997115202869 L 425 596.8997115202869 L 425.99999999999994 596.9656204262063 L 425.99999999999994 596.9656204262063 L 426.99999999999994 597.031956944709 L 426.99999999999994 597.031956944709 L 428 597.0987252073679 L 428 597.0987252073679 L 428.99999999999994 597.1659293984748 L 428.99999999999994 597.1659293984748 L 429.99999999999994 597.2335737558705 L 429.99999999999994 597.2335737558705 L 431 597.3016625717903 L 431 597.3016625717903 L 431.99999999999994 597.370200193726 L 431.99999999999994 597.370200193726 L 432.99999999999994 597.439191025302 L 432.99999999999994 597.439191025302 L 434 597.5086395271702 L 434 597.5086395271702 L 435 597.5785502179201 L 435 597.5785502179201 L 435.99999999999994 597.6489276750066 L 435.99999999999994 597.6489276750066 L 437 597.7197765356947 L 437 597.7197765356946 L 438 597.791101498023 L 438 597.791101498023 L 438.99999999999994 597.862907321785 L 438.99999999999994 597.862907321785 L 440 597.9351988295285 L 440 597.9351988295285 L 441 598.0079809075752 L 441 598.0079809075751 L 441.99999999999994 598.081258507058 L 441.99999999999994 598.081258507058 L 443 598.1550366449804 L 443 598.1550366449804 L 444 598.2293204052944 L 444 598.2293204052944 L 445 598.3041149399996 L 445 598.3041149399996 L 446 598.3794254702643 L 446 598.3794254702643 L 447 598.4552572875666 L 447 598.4552572875666 L 448 598.5316157548597 L 448 598.5316157548596 L 449 598.6085063077576 L 449 598.6085063077576 L 450 598.6859344557462 L 450 598.6859344557461 L 451 598.7639057834155 L 451 598.7639057834155 L 452 598.8424259517184 L 452 598.8424259517184 L 453 598.9215006992521 L 453 598.921500699252 L 454 599.001135843566 L 454 599.0011358435659 L 455 599.0813372824948 L 455 599.0813372824948 L 456 599.1621109955183 L 456 599.1621109955182 L 457 599.2434630451472 L 457 599.2434630451472 L 458 599.3253995783377 L 458 599.3253995783377 L 459 599.4079268279334 L 459 599.4079268279332 L 460 599.4910511141354 L 460 599.4910511141354 L 461 599.5747788460038 L 461 599.5747788460038 L 462 599.6591165229867 L 462 599.6591165229867 L 463 599.7440707364815 L 463 599.7440707364815 L 464 599.8296481714274 L 464 599.8296481714274 L 465 599.9158556079295 L 465 599.9158556079295 L 466 600.0026999229162 L 466 600.0026999229162 L 467 600.0901880918298 L 467 600.0901880918298 L 468 600.1783271903514 L 468 600.1783271903514 L 469 600.2671243961614 L 469 600.2671243961614 L 470 600.3565869907353 L 470 600.3565869907353 L 471 600.4467223611763 L 471 600.4467223611763 L 472 600.5375380020855 L 472 600.5375380020854 L 473 600.6290415174703 L 473 600.6290415174703 L 474 600.7212406226926 L 474 600.7212406226926 L 475 600.814143146456 L 475 600.814143146456 L 476 600.907757032835 L 476 600.907757032835 L 477 601.0020903433458 L 477 601.0020903433458 L 478 601.09715125906 L 478 601.09715125906 L 479 601.1929480827615 L 479 601.1929480827615 L 480 601.2894892411501 L 480 601.2894892411501 L 481 601.3867832870887 L 481 601.3867832870887 L 482 601.484838901899 L 482 601.484838901899 L 483 601.5836648977044 L 483 601.5836648977044 L 484 601.6832702198224 L 484 601.6832702198224 L 485 601.7836639492069 L 485 601.7836639492069 L 486 601.8848553049422 L 486 601.8848553049422 L 487 601.9868536467889 L 487 601.9868536467889 L 488 602.0896684777837 L 488 602.0896684777836 L 489 602.1933094468942 L 489 602.1933094468942 L 490 602.2977863517302 L 490 602.2977863517302 L 491 602.4031091413115 L 491 602.4031091413115 L 492 602.5092879188949 L 492 602.5092879188948 L 493 602.616332944861 L 493 602.616332944861 L 494 602.7242546396633 L 494 602.7242546396633 L 495 602.8330635868381 L 495 602.8330635868381 L 496 602.9427705360804 L 496 602.9427705360804 L 497 603.0533864063846 L 497 603.0533864063846 L 498 603.164922289252 L 498 603.164922289252 L 499 603.2773894519673 L 499 603.2773894519673 L 500 603.3907993409451 L 500 603.3907993409451 L 501 603.5051635851473 L 501 603.5051635851473 L 502 603.6204939995748 L 502 603.6204939995748 L 503 603.7368025888333 L 503 603.7368025888333 L 504 603.854101550775 L 504 603.854101550775 L 505 603.9724032802202 L 505 603.9724032802202 L 506 604.0917203727561 L 506 604.0917203727561 L 507 604.2120656286196 L 507 604.2120656286195 L 508 604.3334520566613 L 508 604.3334520566611 L 509 604.4558928783958 L 509 604.4558928783958 L 510 604.5794015321388 L 510 604.5794015321388 L 511 604.7039916772317 L 511 604.7039916772317 L 512 604.8296771983574 L 512 604.8296771983574 L 513 604.9564722099495 L 513 604.9564722099495 L 514 605.0843910606934 L 514 605.0843910606934 L 515 605.2134483381257 L 515 605.2134483381257 L 516 605.3436588733304 L 516 605.3436588733304 L 517 605.4750377457359 L 517 605.4750377457359 L 518 605.6076002880135 L 518 605.6076002880135 L 519 605.74136209108 L 519 605.74136209108 L 520 605.8763390092064 L 520 605.8763390092064 L 521 606.0125471652342 L 521 606.0125471652342 L 522 606.1500029559021 L 522 606.1500029559021 L 523 606.2887230572843 L 523 606.2887230572842 L 524 606.4287244303425 L 524 606.4287244303424 L 525 606.5700243265944 L 525 606.5700243265944 L 526 606.7126402938995 L 526 606.7126402938995 L 527 606.8565901823648 L 527 606.8565901823648 L 528 607.0018921503723 L 528 607.0018921503722 L 529 607.1485646707297 L 529 607.1485646707297 L 530 607.2966265369474 L 530 607.2966265369474 L 531 607.4460968696415 L 531 607.4460968696415 L 532 607.5969951230661 L 532 607.5969951230661 L 533 607.7493410917774 L 533 607.7493410917773 L 534 607.9031549174275 L 534 607.9031549174275 L 535 608.0584570956944 L 535 608.0584570956944 L 536 608.2152684833452 L 536 608.2152684833452 L 537 608.3736103054366 L 537 608.3736103054366 L 538 608.5335041626523 L 538 608.5335041626523 L 539 608.6949720387793 L 539 608.6949720387793 L 540 608.8580363083229 L 540 608.8580363083229 L 541 609.0227197442623 L 541 609.0227197442622 L 542 609.1890455259453 L 542 609.1890455259453 L 543 609.3570372471252 L 543 609.3570372471252 L 544 609.5267189241363 L 544 609.5267189241362 L 545 609.6981150042103 L 545 609.6981150042103 L 546 609.8712503739328 L 546 609.8712503739328 L 547 610.0461503678362 L 547 610.0461503678362 L 548 610.2228407771313 L 548 610.2228407771313 L 549 610.401347858573 L 549 610.401347858573 L 550 610.5816983434588 L 550 610.5816983434588 L 551 610.7639194467572 L 551 610.7639194467572 L 552 610.9480388763627 L 552 610.9480388763627 L 553 611.1340848424727 L 553 611.1340848424727 L 554 611.3220860670825 L 554 611.3220860670825 L 555 611.5120717935922 L 555 611.5120717935921 L 556 611.7040717965187 L 556 611.7040717965187 L 557 611.8981163913082 L 557 611.8981163913082 L 558 612.0942364442362 L 558 612.0942364442361 L 559 612.2924633823908 L 559 612.2924633823908 L 560 612.4928292037255 L 560 612.4928292037255 L 561 612.6953664871705 L 561 612.6953664871705 L 562 612.90010840279 L 562 612.90010840279 L 563 613.107088721969 L 563 613.107088721969 L 564 613.3163418276162 L 564 613.3163418276162 L 565 613.5279027243598 L 565 613.5279027243598 L 566 613.7418070487221 L 566 613.741807048722 L 567 613.9580910792434 L 567 613.9580910792434 L 568 614.1767917465371 L 568 614.1767917465371 L 569 614.3979466432418 L 569 614.3979466432418 L 570 614.6215940338454 L 570 614.6215940338454 L 571 614.8477728643443 L 571 614.8477728643443 L 572 615.0765227717012 L 572 615.0765227717012 L 573 615.3078840930618 L 573 615.3078840930618 L 574 615.5418978746839 L 574 615.5418978746839 L 575 615.7786058805308 L 575 615.7786058805308 L 576 616.0180506004743 L 576 616.0180506004743 L 577 616.2602752580477 L 577 616.2602752580477 L 578 616.5053238176835 L 578 616.5053238176835 L 579 616.7532409913641 L 579 616.753240991364 L 580 617.0040722446076 L 580 617.0040722446076 L 581 617.2578638017021 L 581 617.2578638017021 L 582 617.5146626500931 L 582 617.5146626500931 L 583 617.7745165438238 L 583 617.7745165438237 L 584 618.0374740059111 L 584 618.0374740059111 L 585 618.3035843295378 L 585 618.3035843295378 L 586 618.5728975779216 L 586 618.5728975779216 L 587 618.8454645827153 L 587 618.8454645827153 L 588 619.1213369407745 L 588 619.1213369407745 L 589 619.4005670091162 L 589 619.4005670091162 L 590 619.683207897873 L 590 619.683207897873 L 591 619.9693134610309 L 591 619.9693134610308 L 592 620.2589382847187 L 592 620.2589382847187 L 593 620.5521376727941 L 593 620.552137672794 L 594 620.8489676294471 L 594 620.8489676294471 L 595 621.1494848385194 L 595 621.1494848385194 L 596 621.453746639203 L 596 621.453746639203 L 597 621.761810997757 L 597 621.761810997757 L 598 622.0737364748413 L 598 622.0737364748413 L 599 622.3895821880319 L 599 622.3895821880319 L 600 622.7094077690421 L 600 622.7094077690421 L 601 623.0332733151233 L 601 623.0332733151233 L 602 623.3612393340777 L 602 623.3612393340777 L 603 623.6933666822532 L 603 623.6933666822532 L 604 624.0297164948383 L 604 624.0297164948383 L 605 624.3703501077038 L 605 624.3703501077038 L 606 624.7153289699717 L 606 624.7153289699717 L 607 625.0647145464104 L 607 625.0647145464104 L 608 625.4185682086705 L 608 625.4185682086705 L 609 625.7769511142816 L 609 625.7769511142816 L 610 626.1399240722282 L 610 626.139924072228 L 611 626.5075473938068 L 611 626.5075473938068 L 612 626.879880727348 L 612 626.879880727348 L 613 627.2569828752427 L 613 627.2569828752427 L 614 627.638911591573 L 614 627.638911591573 L 615 628.025723358476 L 615 628.025723358476 L 616 628.4174731391946 L 616 628.4174731391946 L 617 628.8142141055728 L 617 628.8142141055728 L 618 629.215997337536 L 618 629.215997337536 L 619 629.6228714918653 L 619 629.6228714918653 L 620 630.0348824373145 L 620 630.0348824373145 L 621 630.4520728528404 L 621 630.4520728528404 L 622 630.8744817854082 L 622 630.8744817854082 L 623 631.3021441635024 L 623 631.3021441635024 L 624 631.7350902621057 L 624 631.7350902621057 L 625 632.1733451145171 L 625 632.1733451145171 L 626 632.616927865947 L 626 632.616927865947 L 627 633.065851063364 L 627 633.065851063364 L 628 633.5201198755677 L 628 633.5201198755677 L 629 633.9797312369177 L 629 633.9797312369177 L 630 634.444672907573 L 630 634.444672907573 L 631 634.914922442478 L 631 634.914922442478 L 632 635.390446060675 L 632 635.390446060675 L 633 635.871197405835 L 633 635.8711974058349 L 634 636.3571161881774 L 634 636.3571161881774 L 635 636.8481266972104 L 635 636.8481266972104 L 636 637.3441361739677 L 636 637.3441361739677 L 637 637.84503303067 L 637 637.84503303067 L 638 638.3506849050175 L 638 638.3506849050175 L 639 638.8609365356466 L 639 638.8609365356466 L 640 639.3756074447151 L 640 639.3756074447151 L 641 639.894489413142 L 641 639.894489413142 L 642 640.4173437338175 L 642 640.4173437338175 L 643 640.9438982281738 L 643 640.9438982281738 L 644 641.4738440120109 L 644 641.4738440120109 L 645 642.0068319975229 L 645 642.0068319975229 L 646 642.542469120284 L 646 642.542469120284 L 647 643.0803142827498 L 647 643.0803142827498 L 648 643.6198740099303 L 648 643.6198740099303 L 649 644.160597818675 L 649 644.160597818675 L 650 644.7018733099828 L 650 644.7018733099828 L 651 645.2430210045159 L 651 645.2430210045159 L 652 645.7832889558451 L 652 645.7832889558451 L 653 646.3218471948483 L 653 646.3218471948483 L 654 646.8577820833154 L 654 646.8577820833154 L 655 647.3900906866713 L 655 647.3900906866713 L 656 647.9176753165688 L 656 647.9176753165688 L 657 648.4393384461164 L 657 648.4393384461164 L 658 648.9537782661737 L 658 648.9537782661737 L 659 649.4595852334166 L 659 649.4595852334166 L 660 649.9552400629514 L 660 649.9552400629514 L 661 650.4391137435202 L 661 650.4391137435202 L 662 650.9094703049799 L 662 650.9094703049799 L 663 651.3644732480826 L 663 651.3644732480826 L 664 651.8021967560768 L 664 651.8021967560768 L 665 652.2206430429031 L 665 652.2206430429031 L 666 652.6177674437231 L 666 652.6177674437231 L 667 652.9915130987908 L 667 652.9915130987908 L 668 653.3398572815913 L 668 653.3398572815913 L 669 653.6608715085945 L 669 653.6608715085945 L 670 653.9527974301475 L 670 653.9527974301475 L 671 654.2141399681808 L 671 654.2141399681808 L 672 654.4437779828979 L 672 654.4437779828979 L 673 654.6410905649224 L 673 654.6410905649224 L 674 654.8060934135929 L 674 654.8060934135929 L 675 654.9395741934219 L 675 654.9395741934219 L 676 655.0432079314206 L 676 655.0432079314206 L 677 655.1196236992773 L 677 655.1196236992773 L 678 655.1723837588733 L 678 655.1723837588733 L 679 655.2058306769015 L 679 655.2058306769015 L 680 655.2247658403917 L 680 655.2247658403917 L 681 655.2339582489457 L 681 655.2339582489457 L 682 655.2375576575726 L 682 655.2375576575726 L 683 655.2385901009537 L 683 655.2385901009537 L 684 655.2387752531228 L 684 655.2387752531228 L 685 655.238791006582 L 685 655.238791006582 L 686 655.2387913833024 L 686 655.2387913833024 L 687 655.2387913840865 L 687 655.2387913840865 L 688 655.2387913840865 L 688 655.2387913840865 L 689 655.2387913840865 M 689 655.2387913840865 L 690 945.9999999999999 M 689.9999999999999 -10 L 725.8717011949734 -10 L 726 -4.826655395140506 L 726 -4.826655395140733 L 727 31.22495552325711 L 727 31.224955523256995 L 728 63.601424850984245 L 728 63.60142485098413 L 729 92.79797777463307 L 729 92.79797777463284 L 730 119.22885595999446 L 730 119.22885595999435 L 731 143.2426635328585 L 731 143.24266353285833 L 732 165.1344399329156 L 732 165.13443993291543 L 733 185.15522982943793 L 733 185.15522982943781 L 734 203.51972325653497 L 734 203.5197232565348 L 735 220.4123962852272 L 735 220.4123962852271 L 736 235.99247801611983 L 736 235.99247801611966 L 737 250.3979924928725 L 737 250.39799249287233 L 738 263.74906666477955 L 738 263.74906666477943 L 739 276.15065238891714 L 739 276.15065238891697 L 740 287.6947778366586 L 740 287.6947778366585 L 741 298.4624188154166 L 741 298.4624188154164 L 742 308.5250614523871 L 742 308.525061452387 L 743 317.94601296797964 L 743 317.9460129679795 L 744 326.7815058310121 L 744 326.781505831012 L 745 335.0816316499902 L 745 335.0816316499901 L 746 342.8911341293298 L 746 342.89113412932977 L 747 350.2500848668487 L 747 350.2500848668486 L 748 357.1944613574604 L 748 357.1944613574603 L 749 363.75664304561707 L 749 363.756643045617 L 750 369.96583844297754 L 750 369.96583844297743 L 751 375.8484540498844 L 751 375.8484540498843 L 752 381.428413975039 L 752 381.4284139750389 L 753 386.7274376483134 L 753 386.72743764831336 L 754 391.76528179749005 L 754 391.76528179749 L 755 396.559951856362 L 755 396.5599518563619 L 756 401.127887146119 L 756 401.12788714611895 L 757 405.48412349025887 L 757 405.48412349025875 L 758 409.6424363583481 L 758 409.64243635834805 L 759 413.6154671642191 L 759 413.615467164219 L 760 417.4148349522901 L 760 417.4148349522901 L 761 421.0512353777078 L 761 421.05123537770777 L 762 424.5345286106518 L 762 424.53452861065176 L 763 427.87381756328716 L 763 427.8738175632871 L 764 431.07751764205864 L 764 431.0775176420585 L 765 434.15341906221977 L 765 434.1534190622197 L 766 437.1087426207074 L 766 437.10874262070735 L 767 439.9501897036215 L 767 439.9501897036214 L 768 442.68398720227106 L 768 442.68398720227094 L 769 445.31592792422646 L 769 445.3159279242264 L 770 447.8514070107469 L 770 447.85140701074687 L 771 450.29545480742365 L 771 450.2954548074236 L 772 452.6527665792771 L 772 452.652766579277 L 773 454.927729413536 L 773 454.9277294135359 L 774 457.12444661178154 L 774 457.1244466117814 L 775 459.2467598371139 L 775 459.2467598371138 L 776 461.29826925069733 L 776 461.29826925069733 L 777 463.28235184479064 L 777 463.2823518447906 L 778 465.2021781555967 L 778 465.20217815559664 L 779 467.0607275184984 L 779 467.06072751849837 L 780 468.8608020100594 L 780 468.8608020100593 L 781 470.60503920522103 L 781 470.60503920522103 L 782 472.29592386411855 L 782 472.29592386411844 L 783 473.93579865060553 L 783 473.9357986506055 L 784 475.52687397371415 L 784 475.5268739737141 L 785 477.07123703367756 L 785 477.07123703367745 L 786 478.5708601456639 L 786 478.57086014566386 L 787 480.02760840685335 L 787 480.02760840685323 L 788 481.44324676582977 L 788 481.4432467658297 L 789 482.8194465473403 L 789 482.81944654734025 L 790 484.15779148021124 L 790 484.15779148021113 L 791 485.459783271522 L 791 485.4597832715219 L 792 486.7268467659578 L 792 486.7268467659577 L 793 487.960334725527 L 793 487.9603347255269 L 794 489.1615322614901 L 794 489.16153226149004 L 795 490.33166094736 L 795 490.3316609473599 L 796 491.47188263914916 L 796 491.47188263914916 L 797 492.58330302663876 L 797 492.5833030266387 L 798 493.6669749372795 L 798 493.66697493727946 L 799 494.7239014123922 L 799 494.72390141239214 L 800 495.75503857358217 L 800 495.7550385735821 L 801 496.76129829570567 L 801 496.7612982957056 L 802 497.7435507012971 L 802 497.74355070129707 L 803 498.7026264900817 L 803 498.7026264900817 L 804 499.6393191160298 L 804 499.63931911602975 L 805 500.55438682335694 L 805 500.5543868233568 L 806 501.4485545519144 L 806 501.4485545519144 L 807 502.3225157215509 L 807 502.3225157215509 L 808 503.1769339042337 L 808 503.1769339042337 L 809 504.01244439200605 L 809 504.012444392006 L 810 504.8296556682016 L 810 504.82965566820155 L 811 505.62915078874636 L 811 505.6291507887463 L 812 506.4114886798344 L 812 506.4114886798344 L 813 507.1772053577737 L 813 507.1772053577737 L 814 507.9268150763435 L 814 507.9268150763435 L 815 508.6608114065964 L 815 508.6608114065964 L 816 509.379668253659 L 816 509.37966825365896 L 817 510.08384081474105 L 817 510.08384081474105 L 818 510.7737664822471 L 818 510.773766482247 L 819 511.4498656955938 L 819 511.44986569559376 L 820 512.1125427450728 L 820 512.1125427450727 L 821 512.7621865308503 L 821 512.7621865308503 L 822 513.3991712799759 L 822 513.3991712799759 L 823 514.0238572240619 L 823 514.0238572240619 L 824 514.6365912401064 L 824 514.6365912401063 L 825 515.2377074567601 L 825 515.2377074567601 L 826 515.8275278281725 L 826 515.8275278281724 L 827 516.4063626774059 L 827 516.4063626774059 L 828 516.9745112112706 L 828 516.9745112112706 L 829 517.5322620083025 L 829 517.5322620083025 L 830 518.0798934814935 L 830 518.0798934814935 L 831 518.617674317273 L 831 518.6176743172729 L 832 519.1458638921381 L 832 519.1458638921381 L 833 519.6647126682419 L 833 519.6647126682419 L 834 520.1744625691562 L 834 520.174462569156 L 835 520.6753473369524 L 835 520.6753473369524 L 836 521.1675928716664 L 836 521.1675928716664 L 837 521.6514175541447 L 837 521.6514175541447 L 838 522.1270325532067 L 838 522.1270325532067 L 839 522.5946421180001 L 839 522.5946421180001 L 840 523.0544438563659 L 840 523.0544438563659 L 841 523.506628999986 L 841 523.506628999986 L 842 523.9513826570326 L 842 523.9513826570325 L 843 524.3888840529959 L 843 524.3888840529959 L 844 524.8193067603286 L 844 524.8193067603286 L 845 525.2428189175007 L 845 525.2428189175006 L 846 525.6595834380288 L 846 525.6595834380288 L 847 526.0697582100064 L 847 526.0697582100063 L 848 526.4734962866307 L 848 526.4734962866307 L 849 526.8709460681954 L 849 526.8709460681954 L 850 527.2622514759867 L 850 527.2622514759865 L 851 527.647552118498 L 851 527.647552118498 L 852 528.0269834503548 L 852 528.0269834503547 L 853 528.4006769243146 L 853 528.4006769243144 L 854 528.768760136692 L 854 528.768760136692 L 855 529.1313569665352 L 855 529.1313569665352 L 856 529.4885877088619 L 856 529.4885877088618 L 857 529.8405692022476 L 857 529.8405692022475 L 858 530.1874149510421 L 858 530.187414951042 L 859 530.5292352424736 L 859 530.5292352424736 L 860 530.8661372588872 L 860 530.8661372588871 L 861 531.1982251853494 L 861 531.1982251853494 L 862 531.5256003128422 L 862 531.5256003128422 L 863 531.8483611372501 L 863 531.84836113725 L 864 532.1666034543414 L 864 532.1666034543414 L 865 532.4804204509298 L 865 532.4804204509298 L 866 532.7899027923912 L 866 532.7899027923912 L 867 533.0951387067058 L 867 533.0951387067058 L 868 533.396214065184 L 868 533.396214065184 L 869 533.6932124600258 L 869 533.6932124600258 L 870 533.9862152788583 L 870 533.9862152788583 L 871 534.275301776385 L 871 534.275301776385 L 872 534.5605491432791 L 872 534.5605491432791 L 873 534.8420325724389 L 873 534.8420325724389 L 874 535.1198253227251 L 874 535.1198253227251 L 875 535.3939987802886 L 875 535.3939987802886 L 876 535.6646225175944 L 876 535.6646225175944 L 877 535.9317643502408 L 877 535.9317643502407 L 878 536.1954903916699 L 878 536.1954903916698 L 879 536.4558651058585 L 879 536.4558651058585 L 880 536.7129513580765 L 880 536.7129513580765 L 881 536.9668104637925 L 881 536.9668104637924 L 882 537.2175022358081 L 882 537.2175022358081 L 883 537.4650850296908 L 883 537.4650850296907 L 884 537.7096157875801 L 884 537.70961578758 L 885 537.9511500804305 L 885 537.9511500804304 L 886 538.189742148759 L 886 538.189742148759 L 887 538.4254449419562 L 887 538.4254449419562 L 888 538.6583101562193 L 888 538.6583101562192 L 889 538.8883882711636 L 889 538.8883882711635 L 890 539.1157285851665 L 890 539.1157285851665 L 891 539.3403792494919 L 891 539.3403792494919 L 892 539.5623873012458 L 892 539.5623873012458 L 893 539.7817986952093 L 893 539.7817986952093 L 894 539.9986583345914 L 894 539.9986583345913 L 895 540.2130101007456 L 895 540.2130101007456 L 896 540.4248968818906 L 896 540.4248968818906 L 897 540.6343606008721 L 897 540.6343606008721 L 898 540.841442242004 L 898 540.841442242004 L 899 541.0461818770236 L 899 541.0461818770236 L 900 541.2486186901963 L 900 541.2486186901962 L 901 541.4487910025978 L 901 541.4487910025978 L 902 541.6467362956106 L 902 541.6467362956106 L 903 541.8424912336591 L 903 541.8424912336591 L 904 542.0360916862146 L 904 542.0360916862146 L 905 542.2275727490971 L 905 542.2275727490971 L 906 542.4169687650987 L 906 542.4169687650985 L 907 542.6043133439535 L 907 542.6043133439535 L 908 542.7896393816812 L 908 542.7896393816811 L 909 542.9729790793211 L 909 542.972979079321 L 910 543.1543639610846 L 910 543.1543639610845 L 911 543.3338248919438 L 911 543.3338248919438 L 912 543.5113920946766 L 912 543.5113920946766 L 913 543.6870951663896 L 913 543.6870951663894 L 914 543.8609630945342 L 914 543.8609630945341 L 915 544.0330242724378 L 915 544.0330242724378 L 916 544.2033065143632 L 916 544.2033065143632 L 917 544.3718370701149 L 917 544.3718370701149 L 918 544.5386426392082 L 918 544.5386426392082 L 919 544.7037493846152 L 919 544.7037493846152 L 920 544.8671829461027 L 920 544.8671829461027 L 921 545.0289684531765 L 921 545.0289684531765 L 922 545.1891305376446 L 922 545.1891305376445 L 923 545.347693345813 L 923 545.347693345813 L 924 545.5046805503266 L 924 545.5046805503266 L 925 545.6601153616663 L 925 545.6601153616663 L 926 545.8140205393146 L 926 545.8140205393145 L 927 545.9664184026004 L 927 545.9664184026004 L 928 546.1173308412348 L 928 546.1173308412347 L 929 546.2667793255448 L 929 546.2667793255448 L 930 546.4147849164199 L 930 546.4147849164199 L 931 546.5613682749763 L 931 546.5613682749762 L 932 546.7065496719503 L 932 546.7065496719503 L 933 546.8503489968298 L 933 546.8503489968298 L 934 546.9927857667316 L 934 546.9927857667315 L 935 547.1338791350317 L 935 547.1338791350317 L 936 547.2736478997602 L 936 547.2736478997602 L 937 547.4121105117631 L 937 547.4121105117631 L 938 547.5492850826427 L 938 547.5492850826427 L 939 547.6851893924818 L 939 547.6851893924818 L 940 547.8198408973586 L 940 547.8198408973585 L 941 547.9532567366583 L 941 547.9532567366583 L 942 548.0854537401899 L 942 548.0854537401899 L 943 548.216448435111 L 943 548.216448435111 L 944 548.3462570526698 L 944 548.3462570526698 L 945 548.4748955347676 L 945 548.4748955347675 L 946 548.602379540348 L 946 548.602379540348 L 947 548.7287244516193 L 947 548.7287244516193 L 948 548.8539453801127 L 948 548.8539453801127 L 949 548.9780571725836 L 949 548.9780571725835 L 950 549.1010744167593 L 950 549.1010744167593 L 951 549.2230114469389 L 951 549.2230114469389 L 952 549.3438823494484 L 952 549.3438823494484 L 953 549.4637009679564 L 953 549.4637009679564 L 954 549.5824809086536 L 954 549.5824809086536 L 955 549.7002355453021 L 955 549.7002355453021 L 956 549.8169780241556 L 956 549.8169780241556 L 957 549.9327212687558 L 957 549.9327212687558 L 958 550.047477984609 L 958 550.0474779846089 L 959 550.1612606637455 L 959 550.1612606637455 L 960 550.2740815891652 L 960 550.2740815891652 L 961 550.3859528391738 L 961 550.3859528391737 L 962 550.4968862916105 L 962 550.4968862916105 L 963 550.6068936279737 L 963 550.6068936279737 L 964 550.7159863374436 L 964 550.7159863374436 L 965 550.8241757208081 L 965 550.8241757208081 L 966 550.9314728942925 L 966 550.9314728942924 L 967 551.0378887932968 L 967 551.0378887932967 L 968 551.1434341760431 L 968 551.1434341760431 L 969 551.2481196271349 L 969 551.2481196271349 L 970 551.3519555610314 L 970 551.3519555610314 L 971 551.4549522254393 L 971 551.4549522254392 L 972 551.5571197046237 L 972 551.5571197046236 L 973 551.6584679226407 L 973 551.6584679226407 L 974 551.7590066464945 L 974 551.7590066464945 L 975 551.8587454892195 L 975 551.8587454892195 L 976 551.9576939128907 L 976 551.9576939128907 L 977 552.0558612315643 L 977 552.0558612315643 L 978 552.1532566141498 L 978 552.1532566141498 L 979 552.2498890872154 L 979 552.2498890872153 L 980 552.3457675377293 L 980 552.3457675377293 L 981 552.4409007157384 L 981 552.4409007157383 L 982 552.5352972369843 L 982 552.5352972369843 L 983 552.6289655854619 L 983 552.6289655854619 L 984 552.7219141159176 L 984 552.7219141159176 L 985 552.8141510562931 L 985 552.8141510562931 L 986 552.9056845101131 L 986 552.9056845101131 L 987 552.9965224588193 L 987 552.9965224588193 L 988 553.0866727640528 L 988 553.0866727640528 L 989 553.1761431698851 L 989 553.1761431698851 L 990 553.2649413050003 L 990 553.2649413050003 L 991 553.3530746848284 L 991 553.3530746848284 L 992 553.4405507136315 L 992 553.4405507136314 L 993 553.527376686545 L 993 553.5273766865449 L 994 553.6135597915733 L 994 553.6135597915733 L 995 553.6991071115424 L 995 553.6991071115424 L 996 553.7840256260101 L 996 553.7840256260101 L 997 553.8683222131349 L 997 553.8683222131349 L 998 553.9520036515038 L 998 553.9520036515037 L 999 554.0350766219224 L 999 554.0350766219223 L 1000 554.1175477091649 L 1000 554.1175477091649 L 1001 554.1994234036883 L 1001 554.1994234036883 L 1002 554.2807101033089 L 1002 554.2807101033089 L 1003 554.3614141148439 L 1003 554.3614141148439 L 1004 554.4415416557182 L 1004 554.4415416557182 L 1005 554.5210988555375 L 1005 554.5210988555375 L 1006 554.6000917576283 L 1006 554.6000917576283 L 1007 554.6785263205453 L 1007 554.6785263205453 L 1008 554.7564084195483 L 1008 554.7564084195483 L 1009 554.8337438480476 L 1009 554.8337438480474 L 1010 554.9105383190197 L 1010 554.9105383190196 L 1011 554.986797466394 L 1011 554.986797466394 L 1012 555.0625268464115 L 1012 555.0625268464115 L 1013 555.137731938954 L 1013 555.1377319389538 L 1014 555.2124181488474 L 1014 555.2124181488474 L 1015 555.2865908071394 L 1015 555.2865908071393 L 1016 555.3602551723487 L 1016 555.3602551723487 L 1017 555.4334164316916 L 1017 555.4334164316916 L 1018 555.5060797022818 L 1018 555.5060797022818 L 1019 555.5782500323077 L 1019 555.5782500323077 L 1020 555.649932402185 L 1020 555.649932402185 L 1021 555.721131725687 L 1021 555.721131725687 L 1022 555.791852851052 L 1022 555.7918528510519 L 1023 555.862100562069 L 1023 555.862100562069 L 1024 555.9318795791423 L 1024 555.9318795791422 L 1025 556.0011945603336 L 1025 556.0011945603336 L 1026 556.070050102386 L 1026 556.070050102386 L 1027 556.1384507417257 L 1027 556.1384507417257 L 1028 556.2064009554459 L 1028 556.2064009554459 L 1029 556.2739051622705 L 1029 556.2739051622704 L 1030 556.3409677234991 L 1030 556.3409677234991 L 1031 556.4075929439352 L 1031 556.4075929439352 L 1032 556.4737850727942 L 1032 556.473785072794 L 1033 556.5395483045955 L 1033 556.5395483045955 L 1034 556.6048867800382 L 1034 556.6048867800382 L 1035 556.6698045868576 L 1035 556.6698045868576 L 1036 556.7343057606679 L 1036 556.7343057606679 L 1037 556.7983942857877 L 1037 556.7983942857877 L 1038 556.86207409605 L 1038 556.8620740960499 L 1039 556.9253490755973 L 1039 556.9253490755973 L 1040 556.9882230596613 L 1040 556.9882230596613 L 1041 557.0506998353285 L 1041 557.0506998353285 L 1042 557.1127831422908 L 1042 557.1127831422908 L 1043 557.1744766735833 L 1043 557.1744766735832 L 1044 557.2357840763066 L 1044 557.2357840763065 L 1045 557.2967089523379 L 1045 557.2967089523379 L 1046 557.3572548590273 L 1046 557.3572548590273 L 1047 557.4174253098821 L 1047 557.4174253098821 L 1048 557.477223775238 L 1048 557.4772237752379 L 1049 557.5366536829188 L 1049 557.5366536829188 L 1050 557.5957184188835 L 1050 557.5957184188835 L 1051 557.6544213278618 L 1051 557.6544213278618 L 1052 557.7127657139778 L 1052 557.7127657139778 L 1053 557.7707548413633 L 1053 557.7707548413633 L 1054 557.828391934759 L 1054 557.8283919347589 L 1055 557.8856801801054 L 1055 557.8856801801054 L 1056 557.9426227251234 L 1056 557.9426227251233 L 1057 557.9992226798839 L 1057 557.9992226798839 L 1058 558.0554831173679 L 1058 558.0554831173679 L 1059 558.111407074016 L 1059 558.111407074016 L 1060 558.1669975502688 L 1060 558.1669975502688 L 1061 558.2222575110973 L 1061 558.2222575110973 L 1062 558.2771898865244 L 1062 558.2771898865244 L 1063 558.3317975721369 L 1063 558.3317975721369 L 1064 558.3860834295886 L 1064 558.3860834295886 L 1065 558.4400502870944 L 1065 558.4400502870944 L 1066 558.4937009399172 L 1066 558.4937009399172 L 1067 558.5470381508435 L 1067 558.5470381508435 L 1068 558.6000646506542 L 1068 558.6000646506542 L 1069 558.6527831385845 L 1069 558.6527831385845 L 1070 558.7051962827775 L 1070 558.7051962827775 L 1071 558.7573067207293 L 1071 558.7573067207293 L 1072 558.8091170597268 L 1072 558.8091170597268 L 1073 558.8606298772779 L 1073 558.8606298772779 L 1074 558.9118477215347 L 1074 558.9118477215346 L 1075 558.9627731117085 L 1075 558.9627731117085 L 1076 559.0134085384796 L 1076 559.0134085384794 L 1077 559.0637564643978 L 1077 559.0637564643977 L 1078 559.1138193242788 L 1078 559.1138193242787 L 1079 559.1635995255918 L 1079 559.1635995255918 L 1080 559.2130994488421 L 1080 559.213099448842 L 1081 559.2623214479455 L 1081 559.2623214479454 L 1082 559.311267850599 L 1082 559.311267850599 L 1083 559.3599409586436 L 1083 559.3599409586435 L 1084 559.4083430484206 L 1084 559.4083430484206 L 1085 559.4564763711243 L 1085 559.4564763711243 L 1086 559.5043431531465 L 1086 559.5043431531464 L 1087 559.5519455964165 L 1087 559.5519455964165 L 1088 559.5992858787364 L 1088 559.5992858787364 L 1089 559.6463661541084 L 1089 559.6463661541083 L 1090 559.693188553059 L 1090 559.693188553059 L 1091 559.7397551829579 L 1091 559.7397551829579 L 1092 559.7860681283298 L 1092 559.7860681283297 L 1093 559.8321294511634 L 1093 559.8321294511634 L 1094 559.8779411912141 L 1094 559.877941191214 L 1095 559.923505366302 L 1095 559.923505366302 L 1096 559.9688239726061 L 1096 559.9688239726061 L 1097 560.0138989849519 L 1097 560.0138989849519 L 1098 560.0587323570965 L 1098 560.0587323570965 L 1099 560.1033260220076 L 1099 560.1033260220076 L 1100 560.1476818921393 L 1100 560.1476818921392 L 1101 560.1918018597021 L 1101 560.1918018597021 L 1102 560.2356877969303 L 1102 560.2356877969303 L 1103 560.2793415563438 L 1103 560.2793415563438 L 1104 560.3227649710066 L 1104 560.3227649710064 L 1105 560.365959854781 L 1105 560.3659598547808 L 1106 560.4089280025777 L 1106 560.4089280025777 L 1107 560.4516711906025 L 1107 560.4516711906025 L 1108 560.4941911765984 L 1108 560.4941911765983 L 1109 560.5364897000845 L 1109 560.5364897000845 L 1110 560.5785684825913 L 1110 560.5785684825913 L 1111 560.6204292278919 L 1111 560.6204292278919 L 1112 560.66207362223 L 1112 560.6620736222299 L 1113 560.7035033345442 L 1113 560.703503334544 L 1114 560.7447200166891 L 1114 560.744720016689 L 1115 560.7857253036531 L 1115 560.7857253036531 L 1116 560.826520813772 L 1116 560.826520813772 L 1117 560.867108148941 L 1117 560.8671081489409 L 1118 560.9074888948217 L 1118 560.9074888948215 L 1119 560.9476646210469 L 1119 560.9476646210469 L 1120 560.9876368814232 L 1120 560.9876368814232 L 1121 561.0274072141283 L 1121 561.0274072141282 L 1122 561.066977141907 L 1122 561.0669771419069 L 1123 561.1063481722645 L 1123 561.1063481722645 L 1124 561.1455217976555 L 1124 561.1455217976555 L 1125 561.1844994956715 L 1125 561.1844994956715 L 1126 561.2232827292249 L 1126 561.2232827292248 L 1127 561.2618729467305 L 1127 561.2618729467305 L 1128 561.3002715822845 L 1128 561.3002715822844 L 1129 561.3384800558401 L 1129 561.3384800558401 L 1130 561.3764997733822 L 1130 561.3764997733822 L 1131 561.4143321270968 L 1131 561.4143321270968 L 1132 561.4519784955413 L 1132 561.4519784955412 L 1133 561.489440243809 L 1133 561.489440243809 L 1134 561.5267187236938 L 1134 561.5267187236938 L 1135 561.5638152738511 L 1135 561.5638152738511 L 1136 561.6007312199569 L 1136 561.6007312199569 L 1137 561.6374678748639 L 1137 561.6374678748639 L 1138 561.6740265387566 L 1138 561.6740265387566 L 1139 561.7104084993032 L 1139 561.7104084993032 L 1140 561.7466150318053 L 1140 561.7466150318053 L 1141 561.782647399346 L 1141 561.782647399346 L 1142 561.8185068529357 L 1142 561.8185068529357 L 1143 561.8541946316554 L 1143 561.8541946316554 L 1144 561.8897119627987 L 1144 561.8897119627987 L 1145 561.9250600620111 L 1145 561.925060062011 L 1146 561.9602401334274 L 1146 561.9602401334274 L 1147 561.9952533698083 L 1147 561.9952533698082 L 1148 562.0301009526729 L 1148 562.0301009526729 L 1149 562.0647840524316 L 1149 562.0647840524316 L 1150 562.0993038285155 L 1150 562.0993038285155 L 1151 562.1336614295051 L 1151 562.133661429505 L 1152 562.167857993256 L 1152 562.167857993256 L 1153 562.2018946470245 L 1153 562.2018946470245 L 1154 562.2357725075898 L 1154 562.2357725075898 L 1155 562.2694926813755 L 1155 562.2694926813754 L 1156 562.303056264569 L 1156 562.303056264569 L 1157 562.3364643432399 L 1157 562.3364643432399 L 1158 562.3697179934554 L 1158 562.3697179934554 L 1159 562.4028182813958 L 1159 562.4028182813958 L 1160 562.435766263467 L 1160 562.435766263467 L 1161 562.4685629864127 L 1161 562.4685629864126 L 1162 562.5012094874237 L 1162 562.5012094874236 L 1163 562.5337067942469 L 1163 562.5337067942469 L 1164 562.5660559252924 L 1164 562.5660559252924 L 1165 562.5982578897389 L 1165 562.5982578897388 L 1166 562.6303136876378 L 1166 562.6303136876378 L 1167 562.6622243100164 L 1167 562.6622243100164 L 1168 562.693990738979 L 1168 562.693990738979 L 1169 562.7256139478069 L 1169 562.7256139478069 L 1170 562.757094901057 L 1170 562.757094901057 L 1171 562.7884345546598 L 1171 562.7884345546598 L 1172 562.8196338560145 L 1172 562.8196338560145 L 1173 562.8506937440848 L 1173 562.8506937440848 L 1174 562.8816151494914 L 1174 562.8816151494914 L 1175 562.9123989946054 L 1175 562.9123989946053 L 1176 562.9430461936383 L 1176 562.9430461936383 L 1177 562.9735576527329 L 1177 562.9735576527329 L 1178 563.0039342700511 L 1178 563.0039342700511 L 1179 563.0341769358621 L 1179 563.0341769358621 L 1180 563.0642865326281 L 1180 563.0642865326281 L 1181 563.0942639350903 L 1181 563.0942639350903 L 1182 563.1241100103525 L 1182 563.1241100103525 L 1183 563.1538256179643 L 1183 563.1538256179643 L 1184 563.1834116100032 L 1184 563.1834116100031 L 1185 563.212868831155 L 1185 563.2128688311549 L 1186 563.2421981187942 L 1186 563.2421981187942 L 1187 563.271400303063 L 1187 563.2714003030629 L 1188 563.3004762069481 L 1188 563.300476206948 L 1189 563.3294266463583 L 1189 563.3294266463583 L 1190 563.3582524302004 L 1190 563.3582524302004 L 1191 563.3869543604535 L 1191 563.3869543604535 L 1192 563.4155332322433 L 1192 563.4155332322432 L 1193 563.4439898339148 L 1193 563.4439898339147 L 1194 563.4723249471044 L 1194 563.4723249471043 L 1195 563.5005393468111 L 1195 563.5005393468111 L 1196 563.5286338014668 L 1196 563.5286338014666 L 1197 563.5566090730049 L 1197 563.5566090730049 L 1198 563.58446591693 L 1198 563.58446591693 L 1199 563.612205082384 L 1199 563.612205082384 L 1200 563.6398273122142 L 1200 563.6398273122142 L 1201 563.6673333430382 L 1201 563.6673333430381 L 1202 563.6947239053094 L 1202 563.6947239053093 L 1203 563.7219997233811 L 1203 563.7219997233811 L 1204 563.7491615155704 L 1204 563.7491615155703 L 1205 563.77620999422 L 1205 563.77620999422 L 1206 563.8031458657609 L 1206 563.8031458657608 L 1207 563.829969830773 L 1207 563.829969830773 L 1208 563.8566825840459 L 1208 563.8566825840459 L 1209 563.8832848146379 L 1209 563.8832848146379 L 1210 563.9097772059358 L 1210 563.9097772059357 L 1211 563.9361604357118 L 1211 563.9361604357118 L 1212 563.9624351761823 L 1212 563.9624351761823 L 1213 563.9886020940638 L 1213 563.9886020940637 L 1214 564.014661850629 L 1214 564.0146618506288 L 1215 564.0406151017623 L 1215 564.0406151017622 L 1216 564.0664624980149 L 1216 564.0664624980147 L 1217 564.0922046846579 L 1217 564.0922046846579 L 1218 564.1178423017368 L 1218 564.1178423017368 L 1219 564.1433759841232 L 1219 564.1433759841232 L 1220 564.1688063615675 L 1220 564.1688063615675 L 1221 564.1941340587503 L 1221 564.1941340587503 L 1222 564.219359695333 L 1222 564.2193596953329 L 1223 564.2444838860081 L 1223 564.2444838860081 L 1224 564.2695072405493 L 1224 564.2695072405493 L 1225 564.2944303638599 L 1225 564.2944303638599 L 1226 564.3192538560214 L 1226 564.3192538560214 L 1227 564.343978312342 L 1227 564.343978312342 L 1228 564.3686043234029 L 1228 564.3686043234029 L 1229 564.3931324751059 L 1229 564.3931324751059 L 1230 564.417563348719 L 1230 564.4175633487189 L 1231 564.4418975209226 L 1231 564.4418975209226 L 1232 564.4661355638542 L 1232 564.4661355638541 L 1233 564.4902780451532 L 1233 564.4902780451531 L 1234 564.5143255280047 L 1234 564.5143255280047 L 1235 564.5382785711836 L 1235 564.5382785711836 L 1236 564.5621377290969 L 1236 564.5621377290968 L 1237 564.5859035518267 L 1237 564.5859035518266 L 1238 564.6095765851722 L 1238 564.6095765851722 L 1239 564.6331573706913 L 1239 564.6331573706913 L 1240 564.6566464457412 L 1240 564.6566464457411 L 1241 564.6800443435196 L 1241 564.6800443435196 L 1242 564.7033515931047 L 1242 564.7033515931047 L 1243 564.7265687194945 L 1243 564.7265687194944 L 1244 564.7496962436461 L 1244 564.749696243646 L 1245 564.7727346825149 L 1245 564.7727346825149 L 1246 564.7956845490924 L 1246 564.7956845490924 L 1247 564.8185463524444 L 1247 564.8185463524443 L 1248 564.841320597748 L 1248 564.841320597748 L 1249 564.8640077863294 L 1249 564.8640077863294 L 1250 564.8866084156994 L 1250 564.8866084156994 L 1251 564.9091229795904 L 1251 564.9091229795904 L 1252 564.9315519679922 L 1252 564.9315519679922 L 1253 564.9538958671867 L 1253 564.9538958671867 L 1254 564.9761551597834 L 1254 564.9761551597834 L 1255 564.9983303247537 L 1255 564.9983303247537 L 1256 565.0204218374653 L 1256 565.0204218374653 L 1257 565.0424301697158 L 1257 565.0424301697158 L 1258 565.064355789766 L 1258 565.064355789766 L 1259 565.0861991623733 L 1259 565.0861991623733 L 1260 565.1079607488243 L 1260 565.1079607488242 L 1261 565.1296410069666 L 1261 565.1296410069666 L 1262 565.1512403912415 L 1262 565.1512403912413 L 1263 565.1727593527147 L 1263 565.1727593527147 L 1264 565.1941983391087 L 1264 565.1941983391087 L 1265 565.2155577948325 L 1265 565.2155577948324 L 1266 565.236838161013 L 1266 565.2368381610129 L 1267 565.2580398755246 L 1267 565.2580398755246 L 1268 565.2791633730196 L 1268 565.2791633730196 L 1269 565.3002090849577 L 1269 565.3002090849576 L 1270 565.3211774396345 L 1270 565.3211774396345 L 1271 565.3420688622115 L 1271 565.3420688622115 L 1272 565.3628837747439 L 1272 565.3628837747439 L 1273 565.3836225962091 L 1273 565.3836225962091 L 1274 565.4042857425349 L 1274 565.4042857425347 L 1275 565.4248736266267 L 1275 565.4248736266267 L 1276 565.4453866583955 L 1276 565.4453866583955 L 1277 565.4658252447842 L 1277 565.4658252447842 L 1278 565.4861897897953 L 1278 565.4861897897952 L 1279 565.5064806945162 L 1279 565.5064806945162 L 1280 565.5266983571466 L 1280 565.5266983571466 L 1281 565.546843173024 L 1281 565.546843173024 L 1282 565.5669155346485 L 1282 565.5669155346485 L 1283 565.5869158317098 L 1283 565.5869158317098 L 1284 565.6068444511108 L 1284 565.6068444511108 L 1285 565.6267017769933 L 1285 565.6267017769933 L 1286 565.6464881907623 L 1286 565.6464881907622 L 1287 565.6662040711101 L 1287 565.6662040711101 L 1288 565.6858497940408 L 1288 565.6858497940407 L 1289 565.7054257328937 L 1289 565.7054257328936 L 1290 565.7249322583668 L 1290 565.7249322583668 L 1291 565.7443697385407 L 1291 565.7443697385407 L 1292 565.763738538901 L 1292 565.763738538901 L 1293 565.783039022361 L 1293 565.7830390223609 L 1294 565.8022715492848 L 1294 565.8022715492848 L 1295 565.8214364775096 L 1295 565.8214364775096 L 1296 565.8405341623672 L 1296 565.8405341623672 L 1297 565.8595649567065 L 1297 565.8595649567064 L 1298 565.8785292109147 L 1298 565.8785292109146 L 1299 565.8974272729389 L 1299 565.8974272729389 L 1300 565.9162594883073 L 1300 565.9162594883073 L 1301 565.9350262001501 L 1301 565.9350262001501 L 1302 565.9537277492202 L 1302 565.9537277492202 L 1303 565.9723644739138 L 1303 565.9723644739138 L 1304 565.9909367102907 L 1304 565.9909367102907 L 1305 566.0094447920945 L 1305 566.0094447920945 L 1306 566.0278890507724 L 1306 566.0278890507724 L 1307 566.0462698154947 L 1307 566.0462698154946 L 1308 566.0645874131746 L 1308 566.0645874131745 L 1309 566.0828421684876 L 1309 566.0828421684876 L 1310 566.10103440389 L 1310 566.10103440389 L 1311 566.1191644396388 L 1311 566.1191644396387 L 1312 566.137232593809 L 1312 566.1372325938089 L 1313 566.1552391823135 L 1313 566.1552391823135 L 1314 566.1731845189208 L 1314 566.1731845189208 L 1315 566.191068915273 L 1315 566.1910689152729 L 1316 566.208892680904 L 1316 566.208892680904 L 1317 566.2266561232574 L 1317 566.2266561232573 L 1318 566.2443595477037 L 1318 566.2443595477037 L 1319 566.262003257558 L 1319 566.262003257558 L 1320 566.2795875540975 L 1320 566.2795875540975 L 1321 566.2971127365779 L 1321 566.2971127365779 L 1322 566.314579102251 L 1322 566.3145791022508 L 1323 566.3319869463807 L 1323 566.3319869463807 L 1324 566.3493365622603 L 1324 566.3493365622603 L 1325 566.3666282412288 L 1325 566.3666282412287 L 1326 566.3838622726863 L 1326 566.3838622726862 L 1327 566.4010389441112 L 1327 566.4010389441112 L 1328 566.4181585410754 L 1328 566.4181585410754 L 1329 566.4352213472604 L 1329 566.4352213472604 L 1330 566.4522276444726 L 1330 566.4522276444726 L 1331 566.4691777126591 L 1331 566.4691777126591 L 1332 566.4860718299227 L 1332 566.4860718299227 L 1333 566.5029102725373 L 1333 566.5029102725373 L 1334 566.5196933149625 L 1334 566.5196933149625 L 1335 566.5364212298591 L 1335 566.5364212298591 L 1336 566.5530942881031 L 1336 566.5530942881031 L 1337 566.5697127588007 L 1337 566.5697127588007 L 1338 566.5862769093027 L 1338 566.5862769093027 L 1339 566.6027870052184 L 1339 566.6027870052184 L 1340 566.6192433104303 L 1340 566.6192433104303 L 1341 566.6356460871076 L 1341 566.6356460871076 L 1342 566.6519955957205 L 1342 566.6519955957205 L 1343 566.6682920950535 L 1343 566.6682920950534 L 1344 566.6845358422192 L 1344 566.6845358422192 L 1345 566.7007270926722 L 1345 566.7007270926722 L 1346 566.7168661002214 L 1346 566.7168661002213 L 1347 566.7329531170442 L 1347 566.7329531170442 L 1348 566.7489883936992 L 1348 566.7489883936992 L 1349 566.7649721791389 L 1349 566.7649721791389 L 1350 566.7809047207232 L 1350 566.7809047207232 L 1351 566.7967862642314 L 1351 566.7967862642314 L 1352 566.8126170538751 L 1352 566.8126170538751 L 1353 566.8283973323108 L 1353 566.8283973323108 L 1354 566.8441273406521 L 1354 566.8441273406521 L 1355 566.8598073184818 L 1355 566.8598073184818 L 1356 566.8754375038642 L 1356 566.8754375038642 L 1357 566.8910181333572 L 1357 566.8910181333572 L 1358 566.9065494420239 L 1358 566.9065494420238 L 1359 566.9220316634445 L 1359 566.9220316634445 L 1360 566.9374650297282 L 1360 566.9374650297282 L 1361 566.9528497715243 L 1361 566.9528497715241 L 1362 566.9681861180338 L 1362 566.9681861180338 L 1363 566.9834742970213 L 1363 566.9834742970213 L 1364 566.9987145348254 L 1364 566.9987145348254 L 1365 567.01390705637 L 1365 567.01390705637 L 1366 567.029052085176 L 1366 567.0290520851759 L 1367 567.0441498433712 L 1367 567.0441498433712 L 1368 567.0592005517021 L 1368 567.0592005517021 L 1369 567.074204429544 L 1369 567.074204429544 L 1370 567.0891616949117 L 1370 567.0891616949116 L 1371 567.10407256447 L 1371 567.10407256447 L 1372 567.1189372535446 L 1372 567.1189372535445 L 1373 567.1337559761315 L 1373 567.1337559761315 L 1374 567.1485289449084 L 1374 567.1485289449084 L 1375 567.163256371244 L 1375 567.1632563712438 L 1376 567.1779384652077 L 1376 567.1779384652077 L 1377 567.192575435581 L 1377 567.1925754355809 L 1378 567.2071674898659 L 1378 567.2071674898658 L 1379 567.2217148342953 L 1379 567.2217148342953 L 1380 567.2362176738429 L 1380 567.2362176738429 L 1381 567.2506762122323 L 1381 567.2506762122322 L 1382 567.2650906519465 L 1382 567.2650906519465 L 1383 567.279461194238 L 1383 567.2794611942379 L 1384 567.2937880391373 L 1384 567.2937880391373 L 1385 567.3080713854628 L 1385 567.3080713854628 L 1386 567.3223114308294 L 1386 567.3223114308294 L 1387 567.3365083716578 L 1387 567.3365083716578 L 1388 567.3506624031842 L 1388 567.3506624031841 L 1389 567.3647737194676 L 1389 567.3647737194676 L 1390 567.3788425134005 L 1390 567.3788425134005 L 1391 567.3928689767163 L 1391 567.3928689767162 L 1392 567.4068532999983 L 1392 567.4068532999983 L 1393 567.4207956726889 L 1393 567.4207956726888 L 1394 567.4346962830973 L 1394 567.4346962830973 L 1395 567.4485553184086 L 1395 567.4485553184086 L 1396 567.4623729646917 L 1396 567.4623729646917 L 1397 567.4761494069079 L 1397 567.4761494069079 L 1398 567.4898848289189 L 1398 567.4898848289189 L 1399 567.5035794134951 L 1399 567.5035794134951 L 1400 567.5172333423238 L 1400 567.5172333423238 L 1401 567.5308467960168 L 1401 567.5308467960168 L 1402 567.5444199541188 L 1402 567.5444199541188 L 1403 567.5579529951149 L 1403 567.5579529951149 L 1404 567.5714460964386 L 1404 567.5714460964386 L 1405 567.5848994344797 L 1405 567.5848994344796 L 1406 567.5983131845911 L 1406 567.5983131845911 L 1407 567.6116875210978 L 1407 567.6116875210978 L 1408 567.6250226173033 L 1408 567.6250226173032 L 1409 567.6383186454972 L 1409 567.6383186454972 L 1410 567.6515757769632 L 1410 567.6515757769632 L 1411 567.6647941819858 L 1411 567.6647941819858 L 1412 567.6779740298581 L 1412 567.677974029858 L 1413 567.6911154888882 L 1413 567.6911154888882 L 1414 567.7042187264071 L 1414 567.7042187264071 L 1415 567.7172839087759 L 1415 567.7172839087759 L 1416 567.7303112013919 L 1416 567.7303112013919 L 1417 567.7433007686964 L 1417 567.7433007686964 L 1418 567.756252774181 L 1418 567.756252774181 L 1419 567.7691673803952 L 1419 567.7691673803952 L 1420 567.7820447489523 L 1420 567.7820447489523 L 1421 567.7948850405369 L 1421 567.7948850405368 L 1422 567.8076884149106 L 1422 567.8076884149106 L 1423 567.8204550309199 L 1423 567.8204550309198 L 1424 567.8331850465015 L 1424 567.8331850465015 L 1425 567.8458786186898 L 1425 567.8458786186898 L 1426 567.8585359036223 L 1426 567.8585359036223 L 1427 567.8711570565472 L 1427 567.8711570565471 L 1428 567.8837422318285 L 1428 567.8837422318285 L 1429 567.8962915829532 L 1429 567.8962915829532 L 1430 567.9088052625372 L 1430 567.908805262537 L 1431 567.921283422331 L 1431 567.9212834223309 L 1432 567.9337262132269 L 1432 567.9337262132268 L 1433 567.9461337852639 L 1433 567.9461337852638 L 1434 567.9585062876345 L 1434 567.9585062876343 L 1435 567.97084386869 L 1435 567.97084386869 L 1436 567.9831466759476 L 1436 567.9831466759476 L 1437 567.9954148560946 L 1437 567.9954148560946 L 1438 568.0076485549955 L 1438 568.0076485549955 L 1439 568.0198479176973 L 1439 568.0198479176972 L 1440 568.0320130884352 L 1440 568.0320130884351 L 1441 568.0441442106381 L 1441 568.0441442106381 L 1442 568.056241426935 L 1442 568.056241426935 L 1443 568.0683048791594 L 1443 568.0683048791593 L 1444 568.0803347083558 L 1444 568.0803347083557 L 1445 568.0923310547846 L 1445 568.0923310547846 L 1446 568.104294057928 L 1446 568.104294057928 L 1447 568.1162238564948 L 1447 568.1162238564947 L 1448 568.1281205884262 L 1448 568.1281205884262 L 1449 568.1399843909013 L 1449 568.1399843909013 L 1450 568.1518154003415 L 1450 568.1518154003415 L 1451 568.1636137524167 L 1451 568.1636137524167 L 1452 568.1753795820498 L 1452 568.1753795820498 L 1453 568.1871130234221 L 1453 568.187113023422 L 1454 568.1988142099781 L 1454 568.198814209978 L 1455 568.2104832744311 L 1455 568.2104832744311 L 1456 568.2221203487679 L 1456 568.2221203487678 L 1457 568.2337255642534 L 1457 568.2337255642534 L 1458 568.2452990514362 L 1458 568.2452990514362 L 1459 568.2568409401529 L 1459 568.2568409401529 L 1460 568.2683513595333 L 1460 568.2683513595332 L 1461 568.2798304380051 L 1461 568.2798304380051 L 1462 568.2912783032986 L 1462 568.2912783032986 L 1463 568.3026950824514 L 1463 568.3026950824512 L 1464 568.3140809018132 L 1464 568.3140809018131 L 1465 568.3254358870505 L 1465 568.3254358870504 L 1466 568.336760163151 L 1466 568.3367601631509 L 1467 568.3480538544283 L 1467 568.3480538544281 L 1468 568.3593170845263 L 1468 568.3593170845263 L 1469 568.3705499764242 L 1469 568.3705499764242 L 1470 568.3817526524401 L 1470 568.3817526524401 L 1471 568.3929252342364 L 1471 568.3929252342363 L 1472 568.404067842823 L 1472 568.404067842823 L 1473 568.415180598563 L 1473 568.415180598563 L 1474 568.4262636211762 L 1474 568.4262636211762 L 1475 568.4373170297434 L 1475 568.4373170297434 L 1476 568.4483409427111 L 1476 568.4483409427111 L 1477 568.459335477895 L 1477 568.4593354778949 L 1478 568.4703007524851 L 1478 568.470300752485 L 1479 568.4812368830488 L 1479 568.4812368830488 L 1480 568.4921439855364 L 1480 568.4921439855364 L 1481 568.5030221752835 L 1481 568.5030221752835 L 1482 568.5138715670166 L 1482 568.5138715670165 L 1483 568.524692274856 L 1483 568.524692274856 L 1484 568.5354844123204 L 1484 568.5354844123204 L 1485 568.546248092331 L 1485 568.546248092331 L 1486 568.5569834272145 L 1486 568.5569834272145 L 1487 568.5676905287081 L 1487 568.5676905287081 L 1488 568.5783695079629 L 1488 568.5783695079629 L 1489 568.5890204755473 L 1489 568.5890204755472 L 1490 568.5996435414517 L 1490 568.5996435414515 L 1491 568.6102388150914 L 1491 568.6102388150914 L 1492 568.6208064053112 L 1492 568.6208064053111 L 1493 568.6313464203882 L 1493 568.6313464203882 L 1494 568.6418589680364 L 1494 568.6418589680363 L 1495 568.6523441554095 L 1495 568.6523441554095 L 1496 568.6628020891053 L 1496 568.6628020891053 L 1497 568.6732328751687 L 1497 568.6732328751687 L 1498 568.6836366190955 L 1498 568.6836366190955 L 1499 568.6940134258364 L 1499 568.6940134258363 L 1500 568.7043633997993 L 1500 568.7043633997993 L 1501 568.7146866448544 L 1501 568.7146866448543 L 1502 568.7249832643363 L 1502 568.7249832643363 L 1503 568.7352533610482 L 1503 568.7352533610482 L 1504 568.7454970372652 L 1504 568.7454970372651 L 1505 568.7557143947372 L 1505 568.7557143947372 L 1506 568.7659055346932 L 1506 568.7659055346932 L 1507 568.7760705578435 L 1507 568.7760705578435 L 1508 568.786209564384 L 1508 568.7862095643839 L 1509 568.7963226539988 L 1509 568.7963226539987 L 1510 568.8064099258639 L 1510 568.8064099258638 L 1511 568.8164714786502 L 1511 568.8164714786502 L 1512 568.8265074105269 L 1512 568.8265074105268 L 1513 568.8365178191642 L 1513 568.8365178191642 L 1514 568.8465028017372 L 1514 568.8465028017372 L 1515 568.8564624549284 L 1515 568.8564624549283 L 1516 568.8663968749312 L 1516 568.8663968749311 L 1517 568.8763061574527 L 1517 568.8763061574526 L 1518 568.8861903977171 L 1518 568.886190397717 L 1519 568.8960496904684 L 1519 568.8960496904683 L 1520 568.9058841299736 L 1520 568.9058841299736 L 1521 568.9156938100259 L 1521 568.9156938100259 L 1522 568.9254788239472 L 1522 568.9254788239472 L 1523 568.9352392645912 L 1523 568.9352392645912 L 1524 568.9449752243468" stroke-opacity="0.8" stroke-linecap="round" stroke-linejoin="round" stroke-miterlimit="10" stroke-width="2.5"/></g></g></svg>