<?xml version="1.0"?>
<svg xmlns="http://www.w3.org/2000/svg" xmlns:xlink="http://www.w3.org/1999/xlink" width="140.89151" height="105.679245">
	<defs />
	<path d="M 0 0 L 756.449 0, 0 -490.207 Z" stroke="none" fill="#FFFFFF" transform="matrix(0.121951 0 0 0.121951 26.5712 70.2814)" />
	<path d="M 0 0 L 756.449 0, 0 -490.207 Z" fill="none" stroke="#000000" stroke-width="8.19999981" stroke-linecap="round" stroke-linejoin="round" transform="matrix(0.121951 0 0 0.121951 26.5712 70.2814)" />
	<g transform="matrix(1 0 -0 1 75.8077 16.2343)">
		<svg width="20.9457245" height="38.8714218">
			<defs />
			<path d="M 5.84808 14.3717 C 4.87616 14.3409, 3.93022 14.3255, 3.01072 14.3255, 2.09171 14.3255, 1.14576 14.3409, 0.173363 14.3717 L 0.173363 13.7099, 0.720637 13.7099 C 0.894725 13.7104, 1.05872 13.708, 1.21164 13.7027, 1.36505 13.6979, 1.51029 13.6849, 1.64783 13.6642, 1.78537 13.644, 1.90415 13.6234, 2.00418 13.6022, 2.08882 13.5873, 2.15903 13.5402, 2.21434 13.4603, 2.27012 13.381, 2.29753 13.2925, 2.29753 13.1944 L 2.29753 4.52265 C 2.03352 4.65154, 1.70842 4.74916, 1.32273 4.81553, 0.937045 4.88237, 0.514327 4.91556, 0.0545789 4.91508 L 0.0545789 4.26104 C 0.688897 4.26152, 1.27416 4.18602, 1.81037 4.03453, 2.34659 3.88353, 2.81018 3.59979, 3.20116 3.18381 L 3.4469 3.18381 C 3.62099 3.18429, 3.70804 3.26893, 3.70804 3.43773 L 3.70804 13.1944 C 3.70804 13.2973, 3.73449 13.3872, 3.78739 13.4642, 3.84029 13.5411, 3.91723 13.5873, 4.01726 13.6022, 4.1019 13.6234, 4.21059 13.644, 4.34236 13.6642, 4.47461 13.6849, 4.62369 13.6979, 4.79008 13.7027, 4.95648 13.708, 5.11902 13.7104, 5.27724 13.7099 L 5.84808 13.7099, 5.84808 14.3717 Z" stroke="none" fill="#000000" />
			<rect />
		</svg>
	</g>
	<g transform="matrix(1 0 -0 1 8.50004 33.7343)">
		<svg width="26.9276333" height="26.9142838">
			<defs />
			<path d="M 7.82261 8.48502 C 7.76373 8.72106, 7.6435 8.89772, 7.46291 9.0155, 7.28233 9.13327, 7.10076 9.19215, 6.91723 9.19166, 6.72879 9.19215, 6.57225 9.1318, 6.4481 9.01108, 6.35682 8.92275, 6.30824 8.80743, 6.30235 8.66561, 6.30235 8.60869, 6.31315 8.53508, 6.33474 8.44577, 6.39412 8.24751, 6.48588 8.09686, 6.60955 7.99479, 6.7337 7.89272, 6.82007 7.83384, 6.86865 7.81764, 6.76658 7.73962, 6.55606 7.70036, 6.23758 7.69987, 5.95738 7.70036, 5.70662 7.84561, 5.48579 8.13612, 5.26497 8.42663, 5.10008 8.77602, 4.99212 9.18381 L 4.24819 12.0575 C 4.17262 12.346, 4.11618 12.6208, 4.0784 12.8819, 4.05681 12.9712, 4.04601 13.0497, 4.04601 13.1174, 4.04601 13.2804, 4.073 13.4345, 4.12698 13.5807, 4.18096 13.7382, 4.26193 13.8638, 4.36989 13.9581, 4.47785 14.0523, 4.61525 14.0994, 4.78209 14.0989, 4.99801 14.0994, 5.20559 14.0434, 5.40482 13.9306, 5.60455 13.8182, 5.78808 13.6666, 5.95492 13.4752, 6.12177 13.2843, 6.26997 13.062, 6.39952 12.8078, 6.52907 12.5541, 6.63114 12.2935, 6.70671 12.0261, 6.7391 11.8906, 6.83086 11.8224, 6.98151 11.8219 L 7.1675 11.8219 C 7.30784 11.8224, 7.37802 11.8749, 7.37802 11.979, 7.37802 12.0109, 7.37017 12.0398, 7.35397 12.0653, 7.2784 12.3799, 7.15572 12.69, 6.98593 12.9962, 6.81614 13.3024, 6.61838 13.5733, 6.39167 13.8089, 6.16495 14.0444, 5.90781 14.2383, 5.61927 14.3894, 5.33072 14.5415, 5.02206 14.6171, 4.69327 14.6171, 4.35909 14.6171, 4.07055 14.5454, 3.82813 14.4012, 3.58571 14.2579, 3.38844 14.0704, 3.2373 13.8398, 3.18921 13.7829, 3.15142 13.724, 3.12443 13.6636, 3.09744 13.6038, 3.0891 13.5944, 3.0999 13.6356, 2.97084 13.8506, 2.76621 14.068, 2.48551 14.2878, 2.20531 14.5077, 1.88192 14.6171, 1.51486 14.6171, 1.31023 14.6171, 1.10805 14.5911, 0.908331 14.5386, 0.709097 14.4866, 0.534891 14.4056, 0.386693 14.2957, 0.238494 14.1857, 0.12661 14.0523, 0.0510383 13.8948, 0.0137434 13.801, -0.00490405 13.699, -0.00539478 13.5885, -0.00490405 13.5105, 0.00589184 13.4187, 0.0269929 13.3137, 0.0863704 13.0787, 0.207579 12.902, 0.391109 12.7842, 0.574639 12.6665, 0.757679 12.6076, 0.940718 12.6071, 1.12965 12.6076, 1.29159 12.6679, 1.42604 12.7877, 1.51781 12.877, 1.56345 12.9923, 1.56345 13.1331, 1.56345 13.2068, 1.55265 13.2804, 1.53106 13.353, 1.48297 13.5365, 1.39513 13.6847, 1.26852 13.7971, 1.14191 13.91, 1.05113 13.9713, 0.997152 13.9811, 1.09971 14.0655, 1.30729 14.1048, 1.61988 14.0989, 1.90057 14.0994, 2.15378 13.9531, 2.38001 13.6597, 2.60672 13.3667, 2.77111 13.0159, 2.87367 12.6071 L 3.62546 9.71772 C 3.70103 9.44586, 3.76041 9.17891, 3.80359 8.91686, 3.81439 8.83344, 3.81979 8.75492, 3.81979 8.68131, 3.81979 8.51937, 3.79574 8.36774, 3.74667 8.22592, 3.69318 8.06938, 3.60976 7.94278, 3.4964 7.84561, 3.38304 7.74894, 3.2427 7.70036, 3.07585 7.69987, 2.85993 7.70036, 2.65089 7.75679, 2.44871 7.86917, 2.24653 7.98203, 2.06202 8.13219, 1.89517 8.32063, 1.72833 8.50907, 1.58013 8.72793, 1.45058 8.97624, 1.32103 9.22503, 1.22681 9.48806, 1.16694 9.76483, 1.10805 9.90665, 1.00844 9.97976, 0.868091 9.98467 L 0.689959 9.98467 C 0.560899 9.98516, 0.496124 9.9199, 0.496124 9.78838 L 0.496124 9.73342 C 0.577093 9.40954, 0.701246 9.09401, 0.868091 8.7878, 1.03494 8.48159, 1.23466 8.21071, 1.46628 7.97516, 1.69839 7.73962, 1.9575 7.54725, 2.2431 7.39807, 2.5287 7.24889, 2.83883 7.1743, 3.17252 7.17381, 3.4964 7.1743, 3.782 7.24497, 4.02982 7.3863, 4.27812 7.52762, 4.4803 7.71606, 4.63635 7.95112, 4.66874 8.00902, 4.69867 8.07085, 4.72566 8.13612, 4.75265 8.20188, 4.7605 8.21856, 4.74971 8.18666, 4.88466 7.95701, 5.09223 7.73078, 5.37243 7.508, 5.65313 7.2857, 5.97357 7.1743, 6.33474 7.17381, 6.53986 7.1743, 6.74302 7.19933, 6.9452 7.24889, 7.14738 7.29895, 7.32306 7.37844, 7.47126 7.48837, 7.61945 7.59829, 7.72888 7.73422, 7.79857 7.89616, 7.83635 7.99087, 7.855 8.09833, 7.855 8.21807, 7.855 8.29708, 7.8442 8.3859, 7.82261 8.48502 Z" stroke="none" fill="#000000" />
			<rect />
		</svg>
	</g>
	<g transform="matrix(1 0 -0 1 40.3301 74.1688)">
		<svg width="255.011993" height="137.999969">
			<defs />
			<polyline points="56.8905 2.412 14.07 2.412" fill="none" stroke="#000000" stroke-width="0.64319998" stroke-linecap="round" stroke-linejoin="round" />
			<polyline points="14.07 2.412 5.5283 20.5985" fill="none" stroke="#000000" stroke-width="0.64319998" stroke-linecap="round" stroke-linejoin="round" />
			<polyline points="5.5283 20.5985 2.412 11.7891" fill="none" stroke="#000000" stroke-width="0.64319998" stroke-linecap="round" stroke-linejoin="round" />
			<polyline points="2.412 11.7891 0.804 13.0825" fill="none" stroke="#000000" stroke-width="0.64319998" stroke-linecap="round" stroke-linejoin="round" />
			<polyline points="0.804 13.0825 0.804 13.0825" fill="none" stroke="#000000" stroke-width="0.64319998" stroke-linecap="round" stroke-linejoin="round" />
			<polyline points="0.804 13.0825 3.0552 11.2718" fill="none" stroke="#000000" stroke-width="0.64319998" stroke-linecap="round" stroke-linejoin="round" />
			<polyline points="3.0552 11.2718 5.99957 19.5951" fill="none" stroke="#000000" stroke-width="0.64319998" stroke-linecap="round" stroke-linejoin="round" />
			<ellipse cx="14.069998770952225" cy="2.4119997322559357" rx="0.32159999012947083" ry="0.32159999012947083" stroke="none" fill="#000000" />
			<ellipse cx="5.5283036530017853" cy="20.598493605852127" rx="0.32159999012947083" ry="0.32159999012947083" stroke="none" fill="#000000" />
			<ellipse cx="3.0551996529102325" cy="11.271756201982498" rx="0.32159999012947083" ry="0.32159999012947083" stroke="none" fill="#000000" />
			<polygon points="3.0552 11.2718 5.99957 19.5951 5.5283 20.5985 2.412 11.7891" stroke="none" fill="#000000" />
			<path d="M 21.1971 17.5262 C 20.2252 17.4954, 19.2793 17.48, 18.3598 17.48, 17.4408 17.48, 16.4948 17.4954, 15.5224 17.5262 L 15.5224 16.8644, 16.0697 16.8644 C 16.2438 16.8649, 16.4078 16.8625, 16.5607 16.8572, 16.7141 16.8524, 16.8593 16.8394, 16.9969 16.8188, 17.1344 16.7986, 17.2532 16.7779, 17.3532 16.7567, 17.4379 16.7418, 17.5081 16.6947, 17.5634 16.6149, 17.6192 16.5355, 17.6466 16.447, 17.6466 16.3489 L 17.6466 7.67718 C 17.3826 7.80606, 17.0575 7.90369, 16.6718 7.97005, 16.2861 8.0369, 15.8634 8.07008, 15.4036 8.0696 L 15.4036 7.41556 C 16.0379 7.41605, 16.6232 7.34054, 17.1594 7.18906, 17.6956 7.03805, 18.1592 6.75432, 18.5502 6.33833 L 18.796 6.33833 C 18.97 6.33881, 19.0571 6.42345, 19.0571 6.59225 L 19.0571 16.3489 C 19.0571 16.4518, 19.0835 16.5418, 19.1364 16.6187, 19.1893 16.6957, 19.2663 16.7418, 19.3663 16.7567, 19.451 16.7779, 19.5596 16.7986, 19.6914 16.8188, 19.8237 16.8394, 19.9727 16.8524, 20.1391 16.8572, 20.3055 16.8625, 20.4681 16.8649, 20.6263 16.8644 L 21.1971 16.8644, 21.1971 17.5262 Z" stroke="none" fill="#000000" />
			<polyline points="-5.628 0 5.628 0" fill="none" stroke="#000000" stroke-width="0.64319998" stroke-linecap="round" stroke-linejoin="round" transform="matrix(1 0 0 1 31.552 12.7609)" />
			<path d="M 49.6658 11.6395 C 49.6069 11.8756, 49.4867 12.0522, 49.3061 12.17, 49.1255 12.2878, 48.9439 12.3467, 48.7604 12.3462, 48.572 12.3467, 48.4154 12.2863, 48.2913 12.1656, 48.2 12.0773, 48.1514 11.962, 48.1455 11.8201, 48.1455 11.7632, 48.1563 11.6896, 48.1779 11.6003, 48.2373 11.402, 48.3291 11.2514, 48.4527 11.1493, 48.5769 11.0472, 48.6632 10.9884, 48.7118 10.9722, 48.6098 10.8941, 48.3992 10.8549, 48.0808 10.8544, 47.8006 10.8549, 47.5498 11.0001, 47.329 11.2906, 47.1082 11.5812, 46.9433 11.9305, 46.8353 12.3383 L 46.0914 15.212 C 46.0158 15.5006, 45.9594 15.7754, 45.9216 16.0364, 45.9 16.1257, 45.8892 16.2043, 45.8892 16.272, 45.8892 16.4349, 45.9162 16.589, 45.9702 16.7352, 46.0241 16.8927, 46.1051 17.0184, 46.2131 17.1126, 46.321 17.2068, 46.4584 17.2539, 46.6253 17.2534, 46.8412 17.2539, 47.0488 17.198, 47.248 17.0851, 47.4477 16.9727, 47.6313 16.8211, 47.7981 16.6297, 47.965 16.4388, 48.1131 16.2165, 48.2427 15.9623, 48.3722 15.7086, 48.4743 15.448, 48.5499 15.1806, 48.5823 15.0452, 48.674 14.977, 48.8247 14.9765 L 49.0107 14.9765 C 49.151 14.977, 49.2212 15.0295, 49.2212 15.1335, 49.2212 15.1654, 49.2133 15.1943, 49.1972 15.2199, 49.1216 15.5344, 48.9989 15.8446, 48.8291 16.1508, 48.6593 16.457, 48.4616 16.7279, 48.2348 16.9634, 48.0081 17.1989, 47.751 17.3928, 47.4625 17.5439, 47.1739 17.696, 46.8652 17.7716, 46.5365 17.7716, 46.2023 17.7716, 45.9137 17.7, 45.6713 17.5557, 45.4289 17.4124, 45.2316 17.225, 45.0805 16.9943, 45.0324 16.9374, 44.9946 16.8785, 44.9676 16.8181, 44.9406 16.7583, 44.9323 16.749, 44.9431 16.7902, 44.814 17.0051, 44.6094 17.2225, 44.3287 17.4423, 44.0485 17.6622, 43.7251 17.7716, 43.358 17.7716, 43.1534 17.7716, 42.9512 17.7456, 42.7515 17.6931, 42.5523 17.6411, 42.3781 17.5601, 42.2299 17.4502, 42.0817 17.3403, 41.9698 17.2068, 41.8942 17.0493, 41.8569 16.9555, 41.8383 16.8535, 41.8378 16.7431, 41.8383 16.665, 41.8491 16.5733, 41.8702 16.4683, 41.9296 16.2332, 42.0508 16.0565, 42.2343 15.9388, 42.4178 15.821, 42.6009 15.7621, 42.7839 15.7616, 42.9728 15.7621, 43.1348 15.8225, 43.2692 15.9422, 43.361 16.0315, 43.4066 16.1468, 43.4066 16.2877, 43.4066 16.3613, 43.3958 16.4349, 43.3742 16.5075, 43.3261 16.691, 43.2383 16.8392, 43.1117 16.9516, 42.9851 17.0645, 42.8943 17.1258, 42.8403 17.1356, 42.9429 17.22, 43.1505 17.2593, 43.4631 17.2534, 43.7438 17.2539, 43.997 17.1077, 44.2232 16.8142, 44.4499 16.5213, 44.6143 16.1704, 44.7169 15.7616 L 45.4686 12.8722 C 45.5442 12.6004, 45.6036 12.3334, 45.6468 12.0714, 45.6576 11.988, 45.663 11.9094, 45.663 11.8358, 45.663 11.6739, 45.6389 11.5223, 45.5899 11.3804, 45.5364 11.2239, 45.4529 11.0973, 45.3396 11.0001, 45.2262 10.9035, 45.0859 10.8549, 44.919 10.8544, 44.7031 10.8549, 44.4941 10.9113, 44.2919 11.0237, 44.0897 11.1366, 43.9052 11.2867, 43.7384 11.4752, 43.5715 11.6636, 43.4233 11.8825, 43.2938 12.1308, 43.1642 12.3796, 43.07 12.6426, 43.0101 12.9194, 42.9512 13.0612, 42.8516 13.1343, 42.7113 13.1392 L 42.5331 13.1392 C 42.4041 13.1397, 42.3393 13.0744, 42.3393 12.9429 L 42.3393 12.8879 C 42.4203 12.5641, 42.5444 12.2485, 42.7113 11.9423, 42.8781 11.6361, 43.0778 11.3652, 43.3095 11.1297, 43.5416 10.8941, 43.8007 10.7018, 44.0863 10.5526, 44.3719 10.4034, 44.682 10.3288, 45.0157 10.3283, 45.3396 10.3288, 45.6252 10.3995, 45.873 10.5408, 46.1213 10.6821, 46.3235 10.8706, 46.4795 11.1056, 46.5119 11.1635, 46.5419 11.2254, 46.5688 11.2906, 46.5958 11.3564, 46.6037 11.3731, 46.5929 11.3412, 46.7278 11.1115, 46.9354 10.8853, 47.2156 10.6625, 47.4963 10.4402, 47.8168 10.3288, 48.1779 10.3283, 48.383 10.3288, 48.5862 10.3539, 48.7884 10.4034, 48.9906 10.4535, 49.1662 10.533, 49.3144 10.6429, 49.4626 10.7528, 49.5721 10.8887, 49.6418 11.0507, 49.6795 11.1454, 49.6982 11.2529, 49.6982 11.3726, 49.6982 11.4516, 49.6874 11.5404, 49.6658 11.6395 Z" stroke="none" fill="#000000" />
			<path d="M 2.04965 2.7404 L -1.63658 2.7404, -1.63658 2.49857 C -1.63658 2.48126, -1.62751 2.45487, -1.60937 2.41943 L -0.128447 0.810169 C 0.0466034 0.616981, 0.223852 0.419122, 0.403575 0.216866, 0.583297 0.0146096, 0.744333 -0.192044, 0.886132 -0.403094, 1.02793 -0.614144, 1.14115 -0.831789, 1.22579 -1.05603, 1.31043 -1.28027, 1.35248 -1.5155, 1.35248 -1.762, 1.35248 -1.96976, 1.32527 -2.16404, 1.27086 -2.34431, 1.21645 -2.52459, 1.13813 -2.68287, 1.03535 -2.81918, 0.932848 -2.95548, 0.804515 -3.0654, 0.650624 -3.14894, 0.496733 -3.23248, 0.318385 -3.27425, 0.116129 -3.27453, -0.185606 -3.27425, -0.452167 -3.18412, -0.683278 -3.00385, -0.914114 -2.82357, -1.06745 -2.62489, -1.14303 -2.40834, -1.15787 -2.4023, -1.13368 -2.39928, -1.07048 -2.39955 L -0.993532 -2.39955 C -0.902847 -2.37866, -0.824527 -2.34706, -0.758025 -2.30474, -0.691522 -2.26215, -0.635737 -2.20361, -0.590394 -2.12887, -0.545051 -2.05412, -0.522517 -1.96398, -0.522517 -1.85873, -0.522517 -1.68258, -0.579676 -1.54766, -0.694545 -1.45395, -0.809413 -1.35996, -0.937747 -1.31325, -1.07955 -1.31352, -1.2153 -1.31325, -1.34226 -1.35996, -1.45988 -1.45395, -1.57749 -1.54766, -1.63658 -1.68258, -1.63658 -1.85873, -1.63658 -2.10468, -1.58821 -2.33772, -1.49148 -2.55756, -1.39475 -2.77741, -1.26367 -2.96785, -1.09768 -3.12916, -0.931701 -3.29019, -0.735491 -3.4177, -0.509052 -3.51168, -0.282613 -3.60539, -0.0424333 -3.65238, 0.211211 -3.65266, 0.525313 -3.65238, 0.813034 -3.60622, 1.0741 -3.51388, 1.33516 -3.42155, 1.55775 -3.28882, 1.74187 -3.11597, 1.92599 -2.94284, 2.07027 -2.74278, 2.17442 -2.51579, 2.27857 -2.28853, 2.33051 -2.03736, 2.33051 -1.762, 2.33051 -1.45697, 2.26125 -1.17612, 2.1222 -0.919726, 1.98343 -0.663059, 1.8114 -0.427826, 1.60612 -0.214028, 1.40084 4.48227e-005, 1.18265 0.201477, 0.951535 0.390542, 0.720699 0.579608, 0.511573 0.763452, 0.324431 0.942075 L -0.717353 1.92258, 0.645952 1.92258 C 0.836117 1.92285, 1.01364 1.92148, 1.17797 1.91846, 1.34258 1.91571, 1.48218 1.90966, 1.59705 1.90087, 1.71192 1.89208, 1.77073 1.8863, 1.77348 1.88301, 1.79766 1.86267, 1.82047 1.82173, 1.84163 1.76017, 1.86279 1.69861, 1.8823 1.62606, 1.90044 1.54252, 1.91857 1.45898, 1.93671 1.37407, 1.95485 1.2875, 1.97298 1.20122, 1.98947 1.10641, 2.00459 1.00363 L 2.33957 1.00363 Z" stroke="none" fill="#000000" transform="matrix(1.12 0 0 1 53.7849 8.39045)" />
			<rect />
		</svg>
	</g>
	<path d="M -119.462 -2.32653 C -119.141 -25.5571, -114.015 -48.3382, -104.536 -68.6662" fill="none" stroke="#000000" stroke-width="6.14999962" stroke-linecap="round" stroke-linejoin="round" transform="matrix(0.121951 0 -0 0.121951 118.821 70.2814)" />
	<g transform="matrix(1 0 -0 1 90.7023 57.0061)">
		<svg width="18.0512524" height="27.1071396">
			<defs />
			<path d="M 4.558 3.14418 C 4.64436 3.47591, 4.68722 3.81451, 4.68722 4.15965, 4.68722 4.26827, 4.68362 4.37295, 4.67642 4.47372, 4.64077 4.93467, 4.56356 5.39693, 4.4448 5.86083, 4.31558 6.32865, 4.15201 6.79222, 3.95441 7.25088, 3.75681 7.70987, 3.49411 8.15021, 3.16696 8.57223, 3.05573 8.71552, 2.9324 8.85718, 2.79761 8.99654, 2.66283 9.13624, 2.51823 9.26088, 2.36381 9.3708, 2.2094 9.48072, 2.04844 9.57069, 1.88127 9.64004, 1.7141 9.71005, 1.53874 9.74473, 1.35554 9.74473, 1.16874 9.74473, 1.00778 9.70907, 0.872997 9.63743, 0.738212 9.56611, 0.622401 9.47385, 0.525238 9.36033, 0.428402 9.24714, 0.348251 9.12053, 0.285438 8.98084, 0.222626 8.84147, 0.171264 8.69818, 0.131679 8.55129, 0.04204 8.22709, -0.00310645 7.89209, -0.00310645 7.54629, -0.00310645 7.43506, 0.00409082 7.32514, 0.0184853 7.21653, 0.0472744 6.7631, 0.124481 6.30444, 0.250106 5.83989, 0.368861 5.37272, 0.528837 4.91046, 0.730033 4.45311, 0.931557 3.99608, 1.19916 3.55443, 1.53351 3.12848, 1.64507 2.98585, 1.76742 2.84354, 1.90024 2.70221, 2.03307 2.56088, 2.17505 2.43525, 2.32586 2.32533, 2.47701 2.21541, 2.636 2.12577, 2.80317 2.05576, 2.97035 1.98608, 3.14733 1.95107, 3.33413 1.95075, 3.52126 1.95107, 3.68124 1.98706, 3.81406 2.05838, 3.94688 2.13002, 4.06466 2.22163, 4.16705 2.33318, 4.26978 2.44507, 4.35058 2.57233, 4.4098 2.71529, 4.46934 2.85858, 4.51874 3.00155, 4.558 3.14418 Z M 3.83009 3.26458 C 3.8157 3.12881, 3.7977 3.00155, 3.77611 2.88279, 3.75452 2.76437, 3.72311 2.66131, 3.68189 2.57397, 3.64067 2.48694, 3.58767 2.41955, 3.5229 2.37244, 3.45812 2.32533, 3.37568 2.30178, 3.27492 2.30145, 3.06653 2.30178, 2.87416 2.39861, 2.69816 2.59229, 2.52215 2.78596, 2.35138 3.01725, 2.18584 3.28551, 1.94866 3.66959, 1.76546 4.06413, 1.63591 4.46881, 1.50636 4.87382, 1.39513 5.26443, 1.30156 5.64098 L 3.49575 5.64098 C 3.59291 5.2471, 3.68287 4.84568, 3.76532 4.43708, 3.82289 4.16162, 3.85168 3.88943, 3.85168 3.62051, 3.85168 3.50209, 3.84449 3.38366, 3.83009 3.26458 Z M 1.18837 6.06497 C 1.09153 6.45951, 1.0068 6.85732, 0.934828 7.2584, 0.877577 7.54826, 0.848788 7.83811, 0.848788 8.12731, 0.848788 8.23592, 0.852387 8.34061, 0.859584 8.44137, 0.866781 8.57779, 0.883139 8.70538, 0.908002 8.82381, 0.933192 8.94256, 0.966561 9.04463, 1.00778 9.13002, 1.049 9.21573, 1.10396 9.28182, 1.17234 9.32893, 1.24071 9.37604, 1.32348 9.39959, 1.42032 9.39926, 1.62511 9.39959, 1.81649 9.30374, 1.99446 9.1117, 2.17243 8.91999, 2.34026 8.68935, 2.4986 8.42043, 2.73578 8.02982, 2.91898 7.63397, 3.04853 7.23256, 3.17808 6.83147, 3.28932 6.44217, 3.38255 6.06497 Z" stroke="none" fill="#000000" />
			<rect />
		</svg>
	</g>
</svg>
